<svg width="96" height="121" fill="none" xmlns="http://www.w3.org/2000/svg"><path d="M50.336 5s-3.632 13.073 4.67 24.118C65.153 42.586 92.942 56.674 93 80.285c0 32.966-33.324 36.459-33.324 36.459s17.757-16.454 13.26-33.416c-3.344-12.51-16.373-19.272-21.62-30.88-4.44-9.805-3.344-18.258-3.344-18.258s-16.72 14.651-24.56 33.472c-2.076 4.903-3.69 10.2-3.402 15.61 1.5 25.133 24.388 19.216 21.159 7.438-2.364-8.847-14.298-11.214-19.833-25.752-2.479-6.537-2.306-16.286-2.306-16.286S.235 69.522 3.348 90.767c3.344 23.78 27.27 34.768 43.529 21.582 16.258-13.186 11.358-31.726-4.209-48.124C28.946 49.8 24.334 34.528 28.658 25.174 34.366 12.777 50.336 5 50.336 5z" stroke="#F53C3C" stroke-width="5" stroke-miterlimit="10"/></svg>