<svg width="29" height="37" fill="none" xmlns="http://www.w3.org/2000/svg"><path d="M15.2 2s-1.089 3.934 1.402 7.257c3.044 4.052 11.38 8.291 11.398 15.395 0 9.919-9.997 10.97-9.997 10.97s5.327-4.95 3.978-10.054c-1.003-3.764-4.912-5.799-6.486-9.292-1.332-2.95-1.003-5.493-1.003-5.493S9.476 15.19 7.123 20.854c-.622 1.475-1.106 3.07-1.02 4.697.45 7.562 7.316 5.782 6.348 2.238-.71-2.662-4.29-3.374-5.95-7.749-.744-1.966-.692-4.9-.692-4.9S.17 21.414 1.104 27.806C2.108 34.96 9.286 38.267 14.163 34.3c4.878-3.968 3.407-9.546-1.263-14.48-4.116-4.34-5.5-8.936-4.203-11.75C10.41 4.34 15.201 2 15.201 2z" stroke="url(#paint0_linear)" stroke-width="2" stroke-miterlimit="10"/><path d="M15.2 2s-1.089 3.934 1.402 7.257c3.044 4.052 11.38 8.291 11.398 15.395 0 9.919-9.997 10.97-9.997 10.97s5.327-4.95 3.978-10.054c-1.003-3.764-4.912-5.799-6.486-9.292-1.332-2.95-1.003-5.493-1.003-5.493S9.476 15.19 7.123 20.854c-.622 1.475-1.106 3.07-1.02 4.697.45 7.562 7.316 5.782 6.348 2.238-.71-2.662-4.29-3.374-5.95-7.749-.744-1.966-.692-4.9-.692-4.9S.17 21.414 1.104 27.806C2.108 34.96 9.286 38.267 14.163 34.3c4.878-3.968 3.407-9.546-1.263-14.48-4.116-4.34-5.5-8.936-4.203-11.75C10.41 4.34 15.201 2 15.201 2z" stroke="#F53C3C" stroke-width="2" stroke-miterlimit="10"/><defs><linearGradient id="paint0_linear" x1="31.462" y1="7.1" x2="-1.272" y2="35.219" gradientUnits="userSpaceOnUse"><stop stop-color="#FF2020"/><stop offset=".37" stop-color="#FFB763"/><stop offset=".708" stop-color="#75D7ED"/><stop offset="1" stop-color="#086397"/></linearGradient></defs></svg>