<svg width="267" height="60" fill="none" xmlns="http://www.w3.org/2000/svg"><path d="M.95 34V13h9.75c2.5 0 4.52.71 6.06 2.13 1.56 1.4 2.34 3.14 2.34 5.22 0 2.08-.78 3.83-2.34 5.25-1.54 1.4-3.56 2.1-6.06 2.1H5.45V34H.95zm4.5-10.5h5.1c1.24 0 2.2-.29 2.88-.87.68-.58 1.02-1.34 1.02-2.28 0-.94-.34-1.7-1.02-2.28-.68-.58-1.64-.87-2.88-.87h-5.1v6.3zM22.556 34V13h15.75v4.2h-11.25v4.2h9v3.9h-9v4.5h11.25V34h-15.75zm19.497 0V13h4.5v16.8h10.35V34h-14.85zm17.709 0V13h4.5v16.8h10.35V34h-14.85zm17.71 0V13h15.75v4.2h-11.25v4.2h9v3.9h-9v4.5h11.25V34h-15.75zm17.846-16.8V13h18v4.2h-6.75V34h-4.5V17.2h-6.75zm19.653 10.2h4.65c.18.6.47 1.13.87 1.59.88 1.04 2.19 1.56 3.93 1.56 2.6 0 3.9-.8 3.9-2.4 0-.4-.14-.76-.42-1.08-.26-.32-.68-.6-1.26-.84-.56-.24-1.11-.43-1.65-.57-.52-.16-1.2-.35-2.04-.57-.12-.02-.22-.04-.3-.06-.06-.02-.15-.04-.27-.06-.1-.04-.19-.07-.27-.09-4.16-1-6.24-3.01-6.24-6.03 0-1.8.73-3.32 2.19-4.56 1.48-1.26 3.45-1.89 5.91-1.89 3.2 0 5.62 1.08 7.26 3.24.68.96 1.16 2.03 1.44 3.21h-4.65c-.12-.42-.35-.82-.69-1.2-.76-.8-1.88-1.2-3.36-1.2-1.14 0-2 .22-2.58.66-.58.42-.87.95-.87 1.59 0 1.16 1.32 2.04 3.96 2.64.68.16 1.1.26 1.26.3.18.04.59.15 1.23.33.66.18 1.1.33 1.32.45.24.1.63.27 1.17.51.56.22.95.43 1.17.63.24.2.54.47.9.81.38.32.65.65.81.99.16.34.3.74.42 1.2.14.44.21.92.21 1.44 0 1.86-.75 3.43-2.25 4.71-1.5 1.26-3.6 1.89-6.3 1.89-3.56 0-6.17-1.2-7.83-3.6-.78-1.04-1.32-2.24-1.62-3.6zm57.638 6.6V13h4.5v8.25h9.3V13h4.5v21h-4.5v-8.55h-9.3V34h-4.5zm25.207-2.61c-2.2-2.16-3.3-4.79-3.3-7.89 0-3.1 1.1-5.72 3.3-7.86 2.22-2.16 4.97-3.24 8.25-3.24 3.28 0 6.02 1.08 8.22 3.24 2.22 2.14 3.33 4.76 3.33 7.86 0 3.1-1.11 5.73-3.33 7.89-2.2 2.14-4.94 3.21-8.22 3.21-3.28 0-6.03-1.07-8.25-3.21zm3.39-12.84c-1.26 1.28-1.89 2.93-1.89 4.95s.63 3.68 1.89 4.98c1.28 1.28 2.9 1.92 4.86 1.92 1.96 0 3.57-.64 4.83-1.92 1.28-1.3 1.92-2.96 1.92-4.98 0-2.02-.64-3.67-1.92-4.95-1.26-1.3-2.87-1.95-4.83-1.95s-3.58.65-4.86 1.95zM221.211 34V13h6.75l5.1 12h.75l5.1-12h6.75v21h-4.5V20.65l.3-2.7h-.3l-4.8 11.25h-5.85l-4.8-11.25h-.3l.3 2.7V34h-4.5zm28.813 0V13h15.75v4.2h-11.25v4.2h9v3.9h-9v4.5h11.25V34h-15.75z" fill="#000"/><path d="M153.201 2s-1.09 3.934 1.401 7.257c3.044 4.052 11.381 8.291 11.398 15.395 0 9.919-9.997 10.97-9.997 10.97s5.327-4.95 3.978-10.054c-1.003-3.764-4.912-5.799-6.486-9.292-1.332-2.95-1.003-5.493-1.003-5.493s-5.016 4.408-7.368 10.071c-.623 1.475-1.107 3.07-1.021 4.697.45 7.562 7.316 5.782 6.348 2.238-.709-2.662-4.29-3.374-5.95-7.749-.744-1.966-.692-4.9-.692-4.9s-5.639 6.274-4.705 12.666c1.004 7.155 8.182 10.461 13.059 6.494 4.878-3.968 3.407-9.546-1.263-14.48-4.116-4.34-5.5-8.936-4.203-11.75C148.41 4.34 153.201 2 153.201 2z" stroke="url(#paint0_linear)" stroke-width="2" stroke-miterlimit="10"/><path d="M153.201 2s-1.09 3.934 1.401 7.257c3.044 4.052 11.381 8.291 11.398 15.395 0 9.919-9.997 10.97-9.997 10.97s5.327-4.95 3.978-10.054c-1.003-3.764-4.912-5.799-6.486-9.292-1.332-2.95-1.003-5.493-1.003-5.493s-5.016 4.408-7.368 10.071c-.623 1.475-1.107 3.07-1.021 4.697.45 7.562 7.316 5.782 6.348 2.238-.709-2.662-4.29-3.374-5.95-7.749-.744-1.966-.692-4.9-.692-4.9s-5.639 6.274-4.705 12.666c1.004 7.155 8.182 10.461 13.059 6.494 4.878-3.968 3.407-9.546-1.263-14.48-4.116-4.34-5.5-8.936-4.203-11.75C148.41 4.34 153.201 2 153.201 2z" stroke="#F53C3C" stroke-width="2" stroke-miterlimit="10"/><defs><linearGradient id="paint0_linear" x1="169.462" y1="7.1" x2="136.728" y2="35.219" gradientUnits="userSpaceOnUse"><stop stop-color="#FF2020"/><stop offset=".37" stop-color="#FFB763"/><stop offset=".708" stop-color="#75D7ED"/><stop offset="1" stop-color="#086397"/></linearGradient></defs></svg>