<svg width="326" height="76" fill="none" xmlns="http://www.w3.org/2000/svg"><path d="M2 45.27V19.73h11.929c3.058 0 5.53.863 7.414 2.59 1.908 1.703 2.863 3.82 2.863 6.349 0 2.53-.955 4.658-2.863 6.385-1.884 1.703-4.356 2.554-7.414 2.554H7.506v7.662H2zM7.506 32.5h6.24c1.516 0 2.69-.353 3.523-1.058.832-.706 1.248-1.63 1.248-2.773 0-1.143-.416-2.068-1.248-2.773-.832-.706-2.007-1.058-3.524-1.058h-6.24V32.5zm20.928 12.77V19.73h19.27v5.108H33.938v5.108H44.95v4.743H33.94v5.473h13.763v5.108h-19.27zm23.853 0V19.73h5.505v20.432h12.663v5.108H52.287zm21.667 0V19.73h5.505v20.432h12.663v5.108H73.954zm21.666 0V19.73h19.27v5.108h-13.764v5.108h11.011v4.743h-11.011v5.473h13.764v5.108H95.62zm21.834-20.432V19.73h22.023v5.108h-8.259V45.27h-5.505V24.838h-8.259zM141.5 37.243h5.689c.22.73.575 1.375 1.064 1.934 1.077 1.265 2.679 1.897 4.808 1.897 3.181 0 4.772-.973 4.772-2.919 0-.486-.172-.924-.514-1.313-.318-.39-.832-.73-1.542-1.022a14.213 14.213 0 00-2.018-.693 64.377 64.377 0 00-2.496-.693 4.839 4.839 0 01-.367-.073 2.393 2.393 0 00-.331-.073 2.589 2.589 0 00-.33-.11c-5.089-1.216-7.634-3.66-7.634-7.333 0-2.19.893-4.038 2.679-5.546 1.811-1.533 4.221-2.299 7.231-2.299 3.915 0 6.876 1.314 8.882 3.94a11.108 11.108 0 011.762 3.905h-5.689c-.147-.511-.428-.998-.844-1.46-.93-.973-2.301-1.46-4.111-1.46-1.395 0-2.447.268-3.157.803-.709.511-1.064 1.156-1.064 1.934 0 1.411 1.615 2.481 4.845 3.211.832.195 1.346.316 1.541.365.22.049.722.182 1.505.401.808.22 1.346.402 1.615.547.294.122.771.329 1.432.62.685.268 1.162.524 1.431.767.294.243.661.572 1.101.985.465.39.795.79.991 1.204.196.414.367.9.514 1.46.171.535.257 1.118.257 1.751 0 2.262-.918 4.172-2.753 5.728-1.835 1.533-4.404 2.299-7.708 2.299-4.355 0-7.548-1.46-9.579-4.378-.955-1.265-1.615-2.725-1.982-4.379zm70.517 8.027V19.73h5.505v10.034H228.9V19.73h5.506v25.54H228.9V34.872h-11.378V45.27h-5.505zm30.839-3.174c-2.691-2.627-4.037-5.826-4.037-9.596 0-3.77 1.346-6.957 4.037-9.56 2.716-2.627 6.081-3.94 10.094-3.94 4.013 0 7.365 1.314 10.057 3.94 2.716 2.603 4.074 5.79 4.074 9.56 0 3.77-1.358 6.969-4.074 9.596C260.315 44.699 256.963 46 252.95 46c-4.013 0-7.378-1.301-10.094-3.904zm4.148-15.616c-1.542 1.556-2.313 3.563-2.313 6.02 0 2.457.771 4.476 2.313 6.057 1.566 1.556 3.548 2.335 5.946 2.335 2.398 0 4.367-.779 5.909-2.335 1.566-1.581 2.349-3.6 2.349-6.057 0-2.457-.783-4.463-2.349-6.02-1.542-1.581-3.511-2.372-5.909-2.372-2.398 0-4.38.79-5.946 2.372zm24.475 18.79V19.73h8.259l6.239 14.594h.918l6.239-14.594h8.259v25.54h-5.506V29.034l.367-3.284h-.367l-5.872 13.682h-7.158l-5.872-13.682h-.367l.367 3.284V45.27h-5.506zm35.252 0V19.73H326v5.108h-13.764v5.108h11.011v4.743h-11.011v5.473H326v5.108h-19.269zM0 65.75V64.5h7.884v1.25H4.676v7.083H3.209V65.75H0zm9.084 7.083V64.5h4.492c.856 0 1.528.194 2.017.583.49.39.734.89.734 1.5a2.2 2.2 0 01-.129.767c-.085.222-.19.4-.311.533a2.037 2.037 0 01-.752.483.847.847 0 01-.184.034v.017c.037 0 .11.016.22.05.11.022.251.083.422.183.184.089.355.2.514.333.159.134.293.328.403.584.122.255.183.539.183.85 0 .722-.275 1.305-.825 1.75-.537.444-1.295.666-2.273.666h-4.51zm1.467-4.916h2.934c.917 0 1.375-.361 1.375-1.084 0-.722-.458-1.083-1.375-1.083H10.55v2.167zm0 3.666h3.025c.538 0 .948-.11 1.229-.333.281-.222.422-.528.422-.917s-.141-.694-.422-.916c-.281-.223-.69-.334-1.229-.334h-3.025v2.5zm8.772.184c-.893-.823-1.339-1.856-1.339-3.1 0-1.245.446-2.278 1.339-3.1.892-.823 2.004-1.234 3.337-1.234 1.332 0 2.445.406 3.337 1.217.892.811 1.338 1.822 1.338 3.033v.5h-7.884A2.88 2.88 0 0020.496 71c.6.5 1.32.75 2.164.75.904 0 1.68-.25 2.328-.75.294-.222.526-.472.697-.75h1.467a4.26 4.26 0 01-.935 1.383c-.954.911-2.14 1.367-3.557 1.367-1.333 0-2.445-.411-3.337-1.233zm.165-3.85h6.289c-.11-.656-.446-1.206-1.009-1.65-.562-.456-1.265-.684-2.108-.684-.844 0-1.553.228-2.127.684-.575.444-.923.994-1.045 1.65zM29.166 76V64.5h1.467v1.333h.018l.184-.25c.207-.289.58-.566 1.118-.833.538-.278 1.198-.417 1.98-.417 1.223 0 2.262.417 3.117 1.25.856.823 1.284 1.85 1.284 3.084 0 1.233-.428 2.266-1.284 3.1-.855.822-1.894 1.233-3.117 1.233-.782 0-1.448-.133-1.998-.4-.538-.278-.905-.567-1.1-.867l-.184-.233h-.018V76h-1.467zm2.347-9.55c-.587.578-.88 1.317-.88 2.217 0 .9.293 1.639.88 2.216.599.578 1.345.867 2.237.867.892 0 1.632-.289 2.219-.867.599-.577.898-1.316.898-2.216 0-.9-.3-1.64-.898-2.217-.587-.578-1.327-.867-2.219-.867-.892 0-1.638.29-2.237.867zm7.469 8.3v-3.167h1.009l2.108-7.083h3.85l2.11 7.083h1.008v3.167H47.6v-1.917h-7.151v1.917h-1.467zm2.476-3.167h5.134L44.85 65.75H43.2l-1.742 5.833zm9.599.184c-.904-.823-1.356-1.856-1.356-3.1 0-1.245.452-2.278 1.356-3.1.905-.823 2.042-1.234 3.411-1.234 1.37 0 2.506.411 3.41 1.234.905.822 1.357 1.855 1.357 3.1 0 1.244-.452 2.277-1.357 3.1-.904.822-2.04 1.233-3.41 1.233s-2.506-.411-3.41-1.233zm1.046-5.317c-.624.578-.935 1.317-.935 2.217 0 .9.311 1.639.935 2.216.623.578 1.411.867 2.365.867.953 0 1.742-.289 2.365-.867.624-.577.935-1.316.935-2.216 0-.9-.311-1.64-.935-2.217-.623-.578-1.411-.867-2.365-.867-.954 0-1.742.29-2.365.867zm7.767-.7V64.5h7.884v1.25h-3.209v7.083H63.08V65.75h-3.21zm9.89 6.017c-.904-.823-1.356-1.856-1.356-3.1 0-1.245.452-2.278 1.357-3.1.904-.823 2.041-1.234 3.41-1.234 1.37 0 2.506.411 3.41 1.234.905.822 1.358 1.855 1.358 3.1 0 1.244-.453 2.277-1.357 3.1-.905.822-2.042 1.233-3.41 1.233-1.37 0-2.507-.411-3.411-1.233zm1.046-5.317c-.623.578-.935 1.317-.935 2.217 0 .9.312 1.639.935 2.216.623.578 1.412.867 2.365.867.954 0 1.742-.289 2.365-.867.624-.577.936-1.316.936-2.216 0-.9-.312-1.64-.935-2.217-.624-.578-1.412-.867-2.366-.867-.953 0-1.742.29-2.365.867zm8.959 6.383V64.5h7.976v8.333h-1.467V65.75h-5.042v7.083h-1.467zm9.263 0l2.567-8.333h3.85l2.568 8.333h-1.559l-2.109-7.083h-1.65l-2.108 7.083h-1.559zm10.264 0V64.5h1.467v6.25l-.019.167h.037l4.932-6.417h1.651v8.333h-1.467v-6.25l.018-.166h-.037l-4.932 6.416h-1.65zm10.453 0V64.5h4.492c.856 0 1.528.194 2.017.583.489.39.733.89.733 1.5 0 .278-.043.534-.128.767-.086.222-.19.4-.312.533a2.05 2.05 0 01-.752.483.836.836 0 01-.183.034v.017c.037 0 .11.016.22.05.11.022.251.083.422.183.183.089.354.2.513.333.159.134.294.328.404.584.122.255.183.539.183.85 0 .722-.275 1.305-.825 1.75-.538.444-1.296.666-2.274.666h-4.51zm1.466-4.916h2.934c.917 0 1.375-.361 1.375-1.084 0-.722-.458-1.083-1.375-1.083h-2.934v2.167zm0 3.666h3.026c.538 0 .947-.11 1.228-.333.282-.222.422-.528.422-.917s-.14-.694-.422-.916c-.281-.223-.69-.334-1.228-.334h-3.026v2.5zm7.984 1.25V64.5h1.467v3.417h5.134V64.5h1.466v8.333h-1.466v-3.666h-5.134v3.666h-1.467zm18.795 0V64.5h1.467v8.333h-1.467zm-8.342 0V64.5h1.466v2.833h2.201c1.027 0 1.864.267 2.512.8.648.523.971 1.173.971 1.95 0 .778-.323 1.434-.971 1.967-.648.522-1.485.783-2.512.783h-3.667zm1.466-1.25h2.201c.635 0 1.13-.139 1.485-.416.354-.278.532-.64.532-1.084 0-.444-.178-.805-.532-1.083-.355-.278-.85-.417-1.485-.417h-2.201v3zm11.512.184c-.893-.823-1.339-1.856-1.339-3.1 0-1.245.446-2.278 1.339-3.1.892-.823 2.004-1.234 3.337-1.234 1.332 0 2.445.406 3.337 1.217.892.811 1.338 1.822 1.338 3.033v.5h-7.884A2.88 2.88 0 00143.799 71c.599.5 1.32.75 2.164.75.904 0 1.681-.25 2.328-.75.294-.222.526-.472.697-.75h1.467c-.22.522-.532.983-.935 1.383-.954.911-2.139 1.367-3.557 1.367-1.333 0-2.445-.411-3.337-1.233zm.165-3.85h6.289c-.11-.656-.446-1.206-1.009-1.65-.562-.456-1.265-.684-2.108-.684-.844 0-1.553.228-2.127.684-.575.444-.923.994-1.045 1.65zm14.634 4.916V64.5h1.467v3.333h1.833l2.934-3.333h1.742l-3.392 3.917 3.667 4.416h-1.834l-3.117-3.75h-1.833v3.75h-1.467zm9.899-1.066c-.905-.823-1.357-1.856-1.357-3.1 0-1.245.452-2.278 1.357-3.1.904-.823 2.041-1.234 3.41-1.234 1.369 0 2.506.411 3.41 1.234.905.822 1.357 1.855 1.357 3.1 0 1.244-.452 2.277-1.357 3.1-.904.822-2.041 1.233-3.41 1.233-1.369 0-2.506-.411-3.41-1.233zm1.045-5.317c-.624.578-.935 1.317-.935 2.217 0 .9.311 1.639.935 2.216.623.578 1.412.867 2.365.867.953 0 1.742-.289 2.365-.867.624-.577.935-1.316.935-2.216 0-.9-.311-1.64-.935-2.217-.623-.578-1.412-.867-2.365-.867-.953 0-1.742.29-2.365.867zm7.767-.7V64.5h7.884v1.25h-3.208v7.083h-1.467V65.75h-3.209zm7.626 7.083l2.567-8.333h3.85l2.567 8.333h-1.558l-2.109-7.083h-1.65l-2.109 7.083h-1.558zm18.606 0V64.5h1.467v8.333h-1.467zm-8.343 0V64.5h1.467v2.833h2.201c1.026 0 1.864.267 2.512.8.647.523.971 1.173.971 1.95 0 .778-.324 1.434-.971 1.967-.648.522-1.486.783-2.512.783h-3.668zm1.467-1.25h2.201c.635 0 1.13-.139 1.485-.416.354-.278.532-.64.532-1.084 0-.444-.178-.805-.532-1.083-.355-.278-.85-.417-1.485-.417h-2.201v3zm28.184-6.016c-.575-.511-.862-1.145-.862-1.9 0-.756.287-1.39.862-1.9.574-.511 1.296-.767 2.163-.767.868 0 1.59.256 2.164.767.575.51.862 1.144.862 1.9 0 .755-.287 1.389-.862 1.9-.574.51-1.296.766-2.164.766-.867 0-1.589-.255-2.163-.766zm-12.322 7.266V61.167h2.384l5.941 9.666.091.167h.037l-.018-.167v-9.666h1.65v11.666h-2.384l-5.941-9.666-.091-.167h-.037l.018.167v9.666h-1.65zm13.349-10.183c-.282.256-.422.594-.422 1.017 0 .422.14.766.422 1.033.293.256.672.383 1.136.383.465 0 .838-.127 1.119-.383.293-.267.44-.611.44-1.033 0-.423-.147-.761-.44-1.017-.281-.267-.654-.4-1.119-.4-.464 0-.843.133-1.136.4zM223.272 69v-1.333h5.134V69h-5.134zm6.426-4.417v-1.666l2.475-1.75h1.467v11.666h-1.65V63l-2.292 1.583zm11.47 8.25V64.5h4.493c.855 0 1.528.194 2.017.583.489.39.733.89.733 1.5 0 .278-.043.534-.128.767-.086.222-.19.4-.312.533a2.05 2.05 0 01-.752.483.836.836 0 01-.183.034v.017c.037 0 .11.016.22.05.11.022.251.083.422.183.183.089.354.2.513.333.159.134.293.328.403.584.123.255.184.539.184.85 0 .722-.275 1.305-.825 1.75-.538.444-1.296.666-2.274.666h-4.511zm1.467-4.916h2.934c.917 0 1.375-.361 1.375-1.084 0-.722-.458-1.083-1.375-1.083h-2.934v2.167zm0 3.666h3.026c.538 0 .947-.11 1.228-.333.281-.222.422-.528.422-.917s-.141-.694-.422-.916c-.281-.223-.69-.334-1.228-.334h-3.026v2.5zm11.192-10.416h1.742L258.044 67h2.476l2.475-5.833h1.742l-5.134 11.666h-1.742l2.017-4.416h-2.934l-3.117-7.25zm11 11.666V64.5h1.467v3.333h1.834l2.933-3.333h1.742l-3.392 3.917 3.667 4.416h-1.833l-3.117-3.75h-1.834v3.75h-1.467zm9.45 3.167V64.5h1.467v1.333h.019l.183-.25c.208-.289.581-.566 1.118-.833.538-.278 1.198-.417 1.981-.417 1.222 0 2.261.417 3.117 1.25.855.823 1.283 1.85 1.283 3.084 0 1.233-.428 2.266-1.283 3.1-.856.822-1.895 1.233-3.117 1.233-.783 0-1.449-.133-1.999-.4-.538-.278-.904-.567-1.1-.867l-.183-.233h-.019V76h-1.467zm2.347-9.55c-.586.578-.88 1.317-.88 2.217 0 .9.294 1.639.88 2.216.599.578 1.345.867 2.237.867.893 0 1.632-.289 2.219-.867.599-.577.898-1.316.898-2.216 0-.9-.299-1.64-.898-2.217-.587-.578-1.326-.867-2.219-.867-.892 0-1.638.29-2.237.867zm9.395 5.317c-.856-.834-1.284-1.867-1.284-3.1 0-1.234.428-2.261 1.284-3.084.855-.833 1.894-1.25 3.117-1.25.77 0 1.418.134 1.943.4.538.267.929.556 1.174.867l.165.25h.018V64.5h1.467v8.333h-1.467V71.5h-.018l-.165.233c-.22.3-.599.59-1.137.867-.538.267-1.198.4-1.98.4-1.223 0-2.262-.411-3.117-1.233zm1.063-5.317c-.587.578-.88 1.317-.88 2.217 0 .9.293 1.639.88 2.216.599.578 1.345.867 2.237.867.893 0 1.632-.289 2.219-.867.599-.577.898-1.316.898-2.216 0-.9-.299-1.64-.898-2.217-.587-.578-1.326-.867-2.219-.867-.892 0-1.638.29-2.237.867zm9.211 6.383V64.5h1.467v6.25l-.018.167h.036l4.933-6.417h1.65v8.333h-1.467v-6.25l.018-.166h-.036l-4.933 6.416h-1.65zm10.453 0V64.5h1.467v3.417h5.134V64.5h1.467v8.333h-1.467v-3.666h-5.134v3.666h-1.467zm11.241-1.066c-.892-.823-1.338-1.856-1.338-3.1 0-1.245.446-2.278 1.338-3.1.893-.823 2.005-1.234 3.337-1.234 1.333 0 2.445.406 3.337 1.217.893.811 1.339 1.822 1.339 3.033v.5h-7.884A2.876 2.876 0 00319.161 71c.599.5 1.32.75 2.163.75.905 0 1.681-.25 2.329-.75.293-.222.526-.472.697-.75h1.467c-.22.522-.532.983-.935 1.383-.954.911-2.14 1.367-3.558 1.367-1.332 0-2.444-.411-3.337-1.233zm.165-3.85h6.289c-.11-.656-.446-1.206-1.008-1.65-.562-.456-1.265-.684-2.109-.684-.843 0-1.552.228-2.127.684-.574.444-.922.994-1.045 1.65z" fill="#fff"/><path d="M188.883 5s-1.373 4.975 1.764 9.178c3.833 5.125 14.331 10.486 14.353 19.47 0 12.545-12.589 13.874-12.589 13.874s6.708-6.261 5.009-12.716c-1.263-4.76-6.185-7.333-8.167-11.75-1.677-3.732-1.263-6.948-1.263-6.948s-6.317 5.575-9.279 12.737c-.784 1.866-1.394 3.881-1.285 5.94.566 9.564 9.213 7.312 7.993 2.83-.893-3.366-5.401-4.267-7.492-9.8-.937-2.487-.871-6.196-.871-6.196s-7.101 7.934-5.925 16.018c1.264 9.049 10.303 13.23 16.445 8.213 6.142-5.018 4.29-12.073-1.59-18.313-5.184-5.49-6.926-11.3-5.293-14.86 2.156-4.718 8.19-7.677 8.19-7.677z" stroke="url(#paint0_linear)" stroke-width="2" stroke-miterlimit="10"/><path d="M188.883 5s-1.373 4.975 1.764 9.178c3.833 5.125 14.331 10.486 14.353 19.47 0 12.545-12.589 13.874-12.589 13.874s6.708-6.261 5.009-12.716c-1.263-4.76-6.185-7.333-8.167-11.75-1.677-3.732-1.263-6.948-1.263-6.948s-6.317 5.575-9.279 12.737c-.784 1.866-1.394 3.881-1.285 5.94.566 9.564 9.213 7.312 7.993 2.83-.893-3.366-5.401-4.267-7.492-9.8-.937-2.487-.871-6.196-.871-6.196s-7.101 7.934-5.925 16.018c1.264 9.049 10.303 13.23 16.445 8.213 6.142-5.018 4.29-12.073-1.59-18.313-5.184-5.49-6.926-11.3-5.293-14.86 2.156-4.718 8.19-7.677 8.19-7.677z" stroke="#F53C3C" stroke-width="2" stroke-miterlimit="10"/><defs><linearGradient id="paint0_linear" x1="209.359" y1="11.45" x2="167.988" y2="46.836" gradientUnits="userSpaceOnUse"><stop stop-color="#FF2020"/><stop offset=".37" stop-color="#FFB763"/><stop offset=".708" stop-color="#75D7ED"/><stop offset="1" stop-color="#086397"/></linearGradient></defs></svg>