<svg width="267" height="60" fill="none" xmlns="http://www.w3.org/2000/svg"><path d="M.95 34V13h9.75c2.5 0 4.52.71 6.06 2.13 1.56 1.4 2.34 3.14 2.34 5.22 0 2.08-.78 3.83-2.34 5.25-1.54 1.4-3.56 2.1-6.06 2.1H5.45V34H.95zm4.5-10.5h5.1c1.24 0 2.2-.29 2.88-.87.68-.58 1.02-1.34 1.02-2.28 0-.94-.34-1.7-1.02-2.28-.68-.58-1.64-.87-2.88-.87h-5.1v6.3zM22.556 34V13h15.75v4.2h-11.25v4.2h9v3.9h-9v4.5h11.25V34h-15.75zm19.497 0V13h4.5v16.8h10.35V34h-14.85zm17.709 0V13h4.5v16.8h10.35V34h-14.85zm17.71 0V13h15.75v4.2h-11.25v4.2h9v3.9h-9v4.5h11.25V34h-15.75zm17.846-16.8V13h18v4.2h-6.75V34h-4.5V17.2h-6.75zm19.653 10.2h4.65c.18.6.47 1.13.87 1.59.88 1.04 2.19 1.56 3.93 1.56 2.6 0 3.9-.8 3.9-2.4 0-.4-.14-.76-.42-1.08-.26-.32-.68-.6-1.26-.84-.56-.24-1.11-.43-1.65-.57-.52-.16-1.2-.35-2.04-.57-.12-.02-.22-.04-.3-.06-.06-.02-.15-.04-.27-.06-.1-.04-.19-.07-.27-.09-4.16-1-6.24-3.01-6.24-6.03 0-1.8.73-3.32 2.19-4.56 1.48-1.26 3.45-1.89 5.91-1.89 3.2 0 5.62 1.08 7.26 3.24.68.96 1.16 2.03 1.44 3.21h-4.65c-.12-.42-.35-.82-.69-1.2-.76-.8-1.88-1.2-3.36-1.2-1.14 0-2 .22-2.58.66-.58.42-.87.95-.87 1.59 0 1.16 1.32 2.04 3.96 2.64.68.16 1.1.26 1.26.3.18.04.59.15 1.23.33.66.18 1.1.33 1.32.45.24.1.63.27 1.17.51.56.22.95.43 1.17.63.24.2.54.47.9.81.38.32.65.65.81.99.16.34.3.74.42 1.2.14.44.21.92.21 1.44 0 1.86-.75 3.43-2.25 4.71-1.5 1.26-3.6 1.89-6.3 1.89-3.56 0-6.17-1.2-7.83-3.6-.78-1.04-1.32-2.24-1.62-3.6zm57.638 6.6V13h4.5v8.25h9.3V13h4.5v21h-4.5v-8.55h-9.3V34h-4.5zm25.207-2.61c-2.2-2.16-3.3-4.79-3.3-7.89 0-3.1 1.1-5.72 3.3-7.86 2.22-2.16 4.97-3.24 8.25-3.24 3.28 0 6.02 1.08 8.22 3.24 2.22 2.14 3.33 4.76 3.33 7.86 0 3.1-1.11 5.73-3.33 7.89-2.2 2.14-4.94 3.21-8.22 3.21-3.28 0-6.03-1.07-8.25-3.21zm3.39-12.84c-1.26 1.28-1.89 2.93-1.89 4.95s.63 3.68 1.89 4.98c1.28 1.28 2.9 1.92 4.86 1.92 1.96 0 3.57-.64 4.83-1.92 1.28-1.3 1.92-2.96 1.92-4.98 0-2.02-.64-3.67-1.92-4.95-1.26-1.3-2.87-1.95-4.83-1.95s-3.58.65-4.86 1.95zM221.211 34V13h6.75l5.1 12h.75l5.1-12h6.75v21h-4.5V20.65l.3-2.7h-.3l-4.8 11.25h-5.85l-4.8-11.25h-.3l.3 2.7V34h-4.5zm28.813 0V13h15.75v4.2h-11.25v4.2h9v3.9h-9v4.5h11.25V34h-15.75z" fill="#000"/><path d="M153.201 2s-1.09 3.934 1.401 7.257c3.044 4.052 11.381 8.291 11.398 15.395 0 9.919-9.997 10.97-9.997 10.97s5.327-4.95 3.978-10.054c-1.003-3.764-4.912-5.799-6.486-9.292-1.332-2.95-1.003-5.493-1.003-5.493s-5.016 4.408-7.368 10.071c-.623 1.475-1.107 3.07-1.021 4.697.45 7.562 7.316 5.782 6.348 2.238-.709-2.662-4.29-3.374-5.95-7.749-.744-1.966-.692-4.9-.692-4.9s-5.639 6.274-4.705 12.666c1.004 7.155 8.182 10.461 13.059 6.494 4.878-3.968 3.407-9.546-1.263-14.48-4.116-4.34-5.5-8.936-4.203-11.75C148.41 4.34 153.201 2 153.201 2z" stroke="url(#paint0_linear)" stroke-width="2" stroke-miterlimit="10"/><path d="M153.201 2s-1.09 3.934 1.401 7.257c3.044 4.052 11.381 8.291 11.398 15.395 0 9.919-9.997 10.97-9.997 10.97s5.327-4.95 3.978-10.054c-1.003-3.764-4.912-5.799-6.486-9.292-1.332-2.95-1.003-5.493-1.003-5.493s-5.016 4.408-7.368 10.071c-.623 1.475-1.107 3.07-1.021 4.697.45 7.562 7.316 5.782 6.348 2.238-.709-2.662-4.29-3.374-5.95-7.749-.744-1.966-.692-4.9-.692-4.9s-5.639 6.274-4.705 12.666c1.004 7.155 8.182 10.461 13.059 6.494 4.878-3.968 3.407-9.546-1.263-14.48-4.116-4.34-5.5-8.936-4.203-11.75C148.41 4.34 153.201 2 153.201 2z" stroke="#F53C3C" stroke-width="2" stroke-miterlimit="10"/><path d="M.075 50.625V49.5h6.45v1.125H3.9V57H2.7v-6.375H.075zM7.507 57v-7.5h3.675c.7 0 1.25.175 1.65.525.4.35.6.8.6 1.35 0 .25-.035.48-.105.69-.07.2-.155.36-.255.48-.1.11-.21.205-.33.285a1.6 1.6 0 01-.285.15c-.07.02-.12.03-.15.03v.015c.03 0 .09.015.18.045.09.02.205.075.345.165.15.08.29.18.42.3s.24.295.33.525c.1.23.15.485.15.765 0 .65-.225 1.175-.675 1.575-.44.4-1.06.6-1.86.6h-3.69zm1.2-4.425h2.4c.75 0 1.125-.325 1.125-.975 0-.65-.375-.975-1.125-.975h-2.4v1.95zm0 3.3h2.475c.44 0 .775-.1 1.005-.3.23-.2.345-.475.345-.825s-.115-.625-.345-.825c-.23-.2-.565-.3-1.005-.3H8.707v2.25zm7.175.165c-.73-.74-1.095-1.67-1.095-2.79s.365-2.05 1.095-2.79c.73-.74 1.64-1.11 2.73-1.11s2 .365 2.73 1.095 1.096 1.64 1.096 2.73v.45h-6.45c.08.7.364 1.275.855 1.725.49.45 1.08.675 1.77.675.74 0 1.375-.225 1.904-.675.24-.2.43-.425.57-.675h1.2c-.18.47-.434.885-.764 1.245-.78.82-1.75 1.23-2.91 1.23-1.09 0-2-.37-2.73-1.11zm.135-3.465h5.146a2.392 2.392 0 00-.826-1.485c-.46-.41-1.035-.615-1.724-.615-.69 0-1.27.205-1.74.615-.47.4-.756.895-.856 1.485zm7.918 7.275V49.5h1.2v1.2h.015l.15-.225c.17-.26.475-.51.915-.75.44-.25.98-.375 1.62-.375 1 0 1.85.375 2.55 1.125.7.74 1.05 1.665 1.05 2.775 0 1.11-.35 2.04-1.05 2.79-.7.74-1.55 1.11-2.55 1.11-.64 0-1.185-.12-1.635-.36-.44-.25-.74-.51-.9-.78l-.15-.21h-.015v4.05h-1.2zm1.92-8.595c-.48.52-.72 1.185-.72 1.995s.24 1.475.72 1.995c.49.52 1.1.78 1.83.78s1.335-.26 1.815-.78c.49-.52.735-1.185.735-1.995s-.245-1.475-.735-1.995c-.48-.52-1.085-.78-1.815-.78s-1.34.26-1.83.78zm6.11 7.47v-2.85h.825l1.725-6.375h3.15l1.725 6.375h.825v2.85h-1.2V57h-5.85v1.725h-1.2zm2.025-2.85h4.2l-1.425-5.25h-1.35l-1.425 5.25zm7.854.165c-.74-.74-1.11-1.67-1.11-2.79s.37-2.05 1.11-2.79c.74-.74 1.67-1.11 2.79-1.11s2.05.37 2.79 1.11c.74.74 1.11 1.67 1.11 2.79s-.37 2.05-1.11 2.79c-.74.74-1.67 1.11-2.79 1.11s-2.05-.37-2.79-1.11zm.855-4.785c-.51.52-.765 1.185-.765 1.995s.255 1.475.765 1.995 1.155.78 1.935.78 1.425-.26 1.935-.78.765-1.185.765-1.995-.255-1.475-.765-1.995-1.155-.78-1.935-.78-1.425.26-1.935.78zm6.354-.63V49.5h6.45v1.125h-2.625V57h-1.2v-6.375h-2.625zm8.092 5.415c-.74-.74-1.11-1.67-1.11-2.79s.37-2.05 1.11-2.79c.74-.74 1.67-1.11 2.79-1.11s2.05.37 2.79 1.11c.74.74 1.11 1.67 1.11 2.79s-.37 2.05-1.11 2.79c-.74.74-1.67 1.11-2.79 1.11s-2.05-.37-2.79-1.11zM58 51.255c-.51.52-.765 1.185-.765 1.995s.255 1.475.765 1.995 1.155.78 1.935.78 1.425-.26 1.935-.78.765-1.185.765-1.995-.255-1.475-.765-1.995-1.155-.78-1.935-.78-1.425.26-1.935.78zM65.329 57v-7.5h6.525V57h-1.2v-6.375h-4.125V57h-1.2zm7.578 0l2.1-7.5h3.15l2.1 7.5h-1.275l-1.725-6.375h-1.35L74.182 57h-1.275zm8.396 0v-7.5h1.2v5.625l-.015.15h.03l4.035-5.775h1.35V57h-1.2v-5.625l.015-.15h-.03L82.653 57h-1.35zm8.551 0v-7.5h3.675c.7 0 1.25.175 1.65.525.4.35.6.8.6 1.35 0 .25-.035.48-.105.69-.07.2-.155.36-.255.48-.1.11-.21.205-.33.285a1.6 1.6 0 01-.285.15c-.07.02-.12.03-.15.03v.015c.03 0 .09.015.18.045.09.02.205.075.345.165.15.08.29.18.42.3s.24.295.33.525c.1.23.15.485.15.765 0 .65-.225 1.175-.675 1.575-.44.4-1.06.6-1.86.6h-3.69zm1.2-4.425h2.4c.75 0 1.125-.325 1.125-.975 0-.65-.375-.975-1.125-.975h-2.4v1.95zm0 3.3h2.475c.44 0 .775-.1 1.005-.3.23-.2.345-.475.345-.825s-.115-.625-.345-.825c-.23-.2-.565-.3-1.005-.3h-2.475v2.25zM97.585 57v-7.5h1.2v3.075h4.2V49.5h1.2V57h-1.2v-3.3h-4.2V57h-1.2zm15.376 0v-7.5h1.2V57h-1.2zm-6.825 0v-7.5h1.2v2.55h1.8c.84 0 1.525.24 2.055.72.53.47.795 1.055.795 1.755s-.265 1.29-.795 1.77c-.53.47-1.215.705-2.055.705h-3zm1.2-1.125h1.8c.52 0 .925-.125 1.215-.375.29-.25.435-.575.435-.975s-.145-.725-.435-.975c-.29-.25-.695-.375-1.215-.375h-1.8v2.7zm9.417.165c-.73-.74-1.095-1.67-1.095-2.79s.365-2.05 1.095-2.79c.73-.74 1.64-1.11 2.73-1.11s2 .365 2.73 1.095 1.095 1.64 1.095 2.73v.45h-6.45c.08.7.365 1.275.855 1.725.49.45 1.08.675 1.77.675.74 0 1.375-.225 1.905-.675.24-.2.43-.425.57-.675h1.2c-.18.47-.435.885-.765 1.245-.78.82-1.75 1.23-2.91 1.23-1.09 0-2-.37-2.73-1.11zm.135-3.465h5.145a2.392 2.392 0 00-.825-1.485c-.46-.41-1.035-.615-1.725-.615-.69 0-1.27.205-1.74.615-.47.4-.755.895-.855 1.485zM128.86 57v-7.5h1.2v3h1.5l2.4-3h1.425l-2.775 3.525 3 3.975h-1.5l-2.55-3.375h-1.5V57h-1.2zm8.098-.96c-.74-.74-1.11-1.67-1.11-2.79s.37-2.05 1.11-2.79c.74-.74 1.67-1.11 2.79-1.11s2.05.37 2.79 1.11c.74.74 1.11 1.67 1.11 2.79s-.37 2.05-1.11 2.79c-.74.74-1.67 1.11-2.79 1.11s-2.05-.37-2.79-1.11zm.855-4.785c-.51.52-.765 1.185-.765 1.995s.255 1.475.765 1.995 1.155.78 1.935.78 1.425-.26 1.935-.78.765-1.185.765-1.995-.255-1.475-.765-1.995-1.155-.78-1.935-.78-1.425.26-1.935.78zm6.354-.63V49.5h6.45v1.125h-2.625V57h-1.2v-6.375h-2.625zM150.405 57l2.1-7.5h3.15l2.1 7.5h-1.275l-1.725-6.375h-1.35L151.68 57h-1.275zm15.222 0v-7.5h1.2V57h-1.2zm-6.825 0v-7.5h1.2v2.55h1.8c.84 0 1.525.24 2.055.72.53.47.795 1.055.795 1.755s-.265 1.29-.795 1.77c-.53.47-1.215.705-2.055.705h-3zm1.2-1.125h1.8c.52 0 .925-.125 1.215-.375.29-.25.435-.575.435-.975s-.145-.725-.435-.975c-.29-.25-.695-.375-1.215-.375h-1.8v2.7zm23.056-5.415c-.47-.46-.705-1.03-.705-1.71 0-.68.235-1.25.705-1.71.47-.46 1.06-.69 1.77-.69s1.3.23 1.77.69c.47.46.705 1.03.705 1.71 0 .68-.235 1.25-.705 1.71-.47.46-1.06.69-1.77.69s-1.3-.23-1.77-.69zM172.978 57V46.5h1.95l4.86 8.7.075.15h.03l-.015-.15v-8.7h1.35V57h-1.95l-4.86-8.7-.075-.15h-.03l.015.15V57h-1.35zm10.92-9.165c-.23.23-.345.535-.345.915s.115.69.345.93c.24.23.55.345.93.345s.685-.115.915-.345c.24-.24.36-.55.36-.93s-.12-.685-.36-.915c-.23-.24-.535-.36-.915-.36s-.69.12-.93.36zm-1.17 5.715v-1.2h4.2v1.2h-4.2zm5.257-3.975v-1.5l2.025-1.575h1.2V57h-1.35v-8.85l-1.875 1.425zM197.368 57v-7.5h3.675c.7 0 1.25.175 1.65.525.4.35.6.8.6 1.35 0 .25-.035.48-.105.69-.07.2-.155.36-.255.48-.1.11-.21.205-.33.285a1.6 1.6 0 01-.285.15c-.07.02-.12.03-.15.03v.015c.03 0 .09.015.18.045.09.02.205.075.345.165.15.08.29.18.42.3s.24.295.33.525c.1.23.15.485.15.765 0 .65-.225 1.175-.675 1.575-.44.4-1.06.6-1.86.6h-3.69zm1.2-4.425h2.4c.75 0 1.125-.325 1.125-.975 0-.65-.375-.975-1.125-.975h-2.4v1.95zm0 3.3h2.475c.44 0 .775-.1 1.005-.3.23-.2.345-.475.345-.825s-.115-.625-.345-.825c-.23-.2-.565-.3-1.005-.3h-2.475v2.25zm9.156-9.375h1.425l2.025 5.25h2.025l2.025-5.25h1.425l-4.2 10.5h-1.425l1.65-3.975h-2.4l-2.55-6.525zm8.999 10.5v-7.5h1.2v3h1.5l2.4-3h1.425l-2.775 3.525 3 3.975h-1.5l-2.55-3.375h-1.5V57h-1.2zm7.731 2.85V49.5h1.2v1.2h.015l.15-.225c.17-.26.475-.51.915-.75.44-.25.98-.375 1.62-.375 1 0 1.85.375 2.55 1.125.7.74 1.05 1.665 1.05 2.775 0 1.11-.35 2.04-1.05 2.79-.7.74-1.55 1.11-2.55 1.11-.64 0-1.185-.12-1.635-.36-.44-.25-.74-.51-.9-.78l-.15-.21h-.015v4.05h-1.2zm1.92-8.595c-.48.52-.72 1.185-.72 1.995s.24 1.475.72 1.995c.49.52 1.1.78 1.83.78s1.335-.26 1.815-.78c.49-.52.735-1.185.735-1.995s-.245-1.475-.735-1.995c-.48-.52-1.085-.78-1.815-.78s-1.34.26-1.83.78zm7.685 4.785c-.7-.75-1.05-1.68-1.05-2.79s.35-2.035 1.05-2.775c.7-.75 1.55-1.125 2.55-1.125.63 0 1.16.12 1.59.36.44.24.76.5.96.78l.135.225h.015V49.5h1.2V57h-1.2v-1.2h-.015l-.135.21c-.18.27-.49.53-.93.78-.44.24-.98.36-1.62.36-1 0-1.85-.37-2.55-1.11zm.87-4.785c-.48.52-.72 1.185-.72 1.995s.24 1.475.72 1.995c.49.52 1.1.78 1.83.78s1.335-.26 1.815-.78c.49-.52.735-1.185.735-1.995s-.245-1.475-.735-1.995c-.48-.52-1.085-.78-1.815-.78s-1.34.26-1.83.78zM242.464 57v-7.5h1.2v5.625l-.015.15h.03l4.035-5.775h1.35V57h-1.2v-5.625l.015-.15h-.03L243.814 57h-1.35zm8.552 0v-7.5h1.2v3.075h4.2V49.5h1.2V57h-1.2v-3.3h-4.2V57h-1.2zm9.196-.96c-.73-.74-1.095-1.67-1.095-2.79s.365-2.05 1.095-2.79c.73-.74 1.64-1.11 2.73-1.11s2 .365 2.73 1.095 1.095 1.64 1.095 2.73v.45h-6.45c.08.7.365 1.275.855 1.725.49.45 1.08.675 1.77.675.74 0 1.375-.225 1.905-.675.24-.2.43-.425.57-.675h1.2c-.18.47-.435.885-.765 1.245-.78.82-1.75 1.23-2.91 1.23-1.09 0-2-.37-2.73-1.11zm.135-3.465h5.145a2.392 2.392 0 00-.825-1.485c-.46-.41-1.035-.615-1.725-.615-.69 0-1.27.205-1.74.615-.47.4-.755.895-.855 1.485z" fill="#000"/><defs><linearGradient id="paint0_linear" x1="169.462" y1="7.1" x2="136.728" y2="35.219" gradientUnits="userSpaceOnUse"><stop stop-color="#FF2020"/><stop offset=".37" stop-color="#FFB763"/><stop offset=".708" stop-color="#75D7ED"/><stop offset="1" stop-color="#086397"/></linearGradient></defs></svg>