<?xml version="1.0" encoding="utf-8"?><svg xmlns="http://www.w3.org/2000/svg" xmlns:xlink="http://www.w3.org/1999/xlink"><symbol viewBox="0 0 14 7" id="arrow-down" xmlns="http://www.w3.org/2000/svg"><path d="M1 1l6 5 6-5"/></symbol><symbol viewBox="0 0 6 11" id="arrow-left" xmlns="http://www.w3.org/2000/svg"><path d="M5.5 10L1 5.5 5.5 1"/></symbol><symbol viewBox="0 0 7 11" id="arrow-right" xmlns="http://www.w3.org/2000/svg"><path d="M1 1l4.5 4.5L1 10"/></symbol><symbol viewBox="0 0 15 9" id="arrow-up" xmlns="http://www.w3.org/2000/svg"><path d="M7.5.225c.269 0 .538.102.743.307l6.45 6.45a1.05 1.05 0 11-1.486 1.486L7.5 2.76 1.793 8.467A1.05 1.05 0 01.308 6.982l6.45-6.45C6.962.327 7.23.225 7.5.225z"/></symbol><symbol viewBox="0 0 23 23" id="calculate" xmlns="http://www.w3.org/2000/svg"><path d="M0 0h23v23H0z"/><path d="M5.618 22.082a4.834 4.834 0 100-9.669 4.834 4.834 0 000 9.669z"/><path d="M5.618 22.717a5.476 5.476 0 01-5.47-5.47 5.476 5.476 0 015.47-5.469 5.476 5.476 0 015.47 5.47 5.476 5.476 0 01-5.47 5.47zm0-9.669a4.204 4.204 0 00-4.199 4.2 4.204 4.204 0 004.2 4.199 4.204 4.204 0 004.199-4.2 4.204 4.204 0 00-4.2-4.199z"/><path d="M3.435 20.066a.635.635 0 01-.449-1.084l4.366-4.365a.635.635 0 11.898.898l-4.365 4.364a.632.632 0 01-.45.187z"/><path d="M7.8 20.066a.632.632 0 01-.448-.186l-4.365-4.365a.635.635 0 11.898-.898l4.365 4.365a.635.635 0 01-.45 1.084zM5.618 10.586a4.834 4.834 0 100-9.668 4.834 4.834 0 000 9.668z"/><path d="M5.618 11.221a5.476 5.476 0 01-5.47-5.47A5.476 5.476 0 015.619.284a5.476 5.476 0 015.47 5.47 5.476 5.476 0 01-5.47 5.468zm0-9.668a4.204 4.204 0 00-4.199 4.2 4.204 4.204 0 004.2 4.198 4.204 4.204 0 004.199-4.199 4.204 4.204 0 00-4.2-4.199z"/><path d="M7.848 6.387h-4.46a.635.635 0 110-1.27h4.46a.635.635 0 110 1.27z"/><path d="M5.618 8.617a.635.635 0 01-.635-.635v-4.46a.635.635 0 111.27 0v4.46c0 .35-.284.635-.635.635zM17.382 10.587a4.835 4.835 0 100-9.67 4.835 4.835 0 000 9.67z"/><path d="M17.382 11.221a5.477 5.477 0 01-5.47-5.47 5.476 5.476 0 015.47-5.468 5.476 5.476 0 015.47 5.47 5.476 5.476 0 01-5.47 5.468zm0-9.668a4.204 4.204 0 00-4.2 4.2 4.204 4.204 0 004.2 4.198c2.316 0 4.2-1.883 4.2-4.199a4.204 4.204 0 00-4.2-4.199z"/><path d="M19.612 6.387h-4.46a.635.635 0 110-1.27h4.46a.635.635 0 010 1.27zM17.382 22.082a4.835 4.835 0 100-9.67 4.835 4.835 0 000 9.67z"/><path d="M17.382 22.717a5.477 5.477 0 01-5.47-5.47 5.476 5.476 0 015.47-5.469 5.476 5.476 0 015.47 5.47 5.476 5.476 0 01-5.47 5.47zm0-9.669a4.205 4.205 0 00-4.2 4.2 4.204 4.204 0 004.2 4.199c2.316 0 4.2-1.884 4.2-4.2a4.204 4.204 0 00-4.2-4.199z"/><path d="M19.612 17.883h-4.46a.635.635 0 110-1.27h4.46a.635.635 0 010 1.27zm-2.231-1.618a.801.801 0 11.002-1.602.801.801 0 01-.002 1.602zm0-1.27a.47.47 0 10.003.94.47.47 0 00-.003-.94zm0 4.836a.8.8 0 11.001-1.6.8.8 0 010 1.6zm0-1.27a.47.47 0 10.002.94.47.47 0 00-.002-.94zM5.618 22.082a4.834 4.834 0 100-9.669 4.834 4.834 0 000 9.669z"/><path d="M5.618 22.717a5.476 5.476 0 01-5.47-5.47 5.476 5.476 0 015.47-5.469 5.476 5.476 0 015.47 5.47 5.476 5.476 0 01-5.47 5.47zm0-9.669a4.204 4.204 0 00-4.199 4.2 4.204 4.204 0 004.2 4.199 4.204 4.204 0 004.199-4.2 4.204 4.204 0 00-4.2-4.199z"/><path d="M3.435 20.066a.635.635 0 01-.449-1.084l4.366-4.365a.635.635 0 11.898.898l-4.365 4.364a.632.632 0 01-.45.187z"/><path d="M7.8 20.066a.632.632 0 01-.448-.186l-4.365-4.365a.635.635 0 11.898-.898l4.365 4.365a.635.635 0 01-.45 1.084zM5.618 10.586a4.834 4.834 0 100-9.668 4.834 4.834 0 000 9.668z"/><path d="M5.618 11.221a5.476 5.476 0 01-5.47-5.47A5.476 5.476 0 015.619.284a5.476 5.476 0 015.47 5.47 5.476 5.476 0 01-5.47 5.468zm0-9.668a4.204 4.204 0 00-4.199 4.2 4.204 4.204 0 004.2 4.198 4.204 4.204 0 004.199-4.199 4.204 4.204 0 00-4.2-4.199z"/><path d="M7.848 6.387h-4.46a.635.635 0 110-1.27h4.46a.635.635 0 110 1.27z"/><path d="M5.618 8.617a.635.635 0 01-.635-.635v-4.46a.635.635 0 111.27 0v4.46c0 .35-.284.635-.635.635zM17.382 10.587a4.835 4.835 0 100-9.67 4.835 4.835 0 000 9.67z"/><path d="M17.382 11.221a5.477 5.477 0 01-5.47-5.47 5.476 5.476 0 015.47-5.468 5.476 5.476 0 015.47 5.47 5.476 5.476 0 01-5.47 5.468zm0-9.668a4.204 4.204 0 00-4.2 4.2 4.204 4.204 0 004.2 4.198c2.316 0 4.2-1.883 4.2-4.199a4.204 4.204 0 00-4.2-4.199z"/><path d="M19.612 6.387h-4.46a.635.635 0 110-1.27h4.46a.635.635 0 010 1.27zM17.382 22.082a4.835 4.835 0 100-9.67 4.835 4.835 0 000 9.67z"/><path d="M17.382 22.717a5.477 5.477 0 01-5.47-5.47 5.476 5.476 0 015.47-5.469 5.476 5.476 0 015.47 5.47 5.476 5.476 0 01-5.47 5.47zm0-9.669a4.205 4.205 0 00-4.2 4.2 4.204 4.204 0 004.2 4.199c2.316 0 4.2-1.884 4.2-4.2a4.204 4.204 0 00-4.2-4.199z"/><path d="M19.612 17.883h-4.46a.635.635 0 110-1.27h4.46a.635.635 0 010 1.27zm-2.231-1.618a.801.801 0 11.002-1.602.801.801 0 01-.002 1.602zm0 3.566a.8.8 0 11.001-1.6.8.8 0 010 1.6z"/></symbol><symbol viewBox="0 0 30 27" id="cart" xmlns="http://www.w3.org/2000/svg"><path d="M9.208 16.824a.968.968 0 01-.967-.774L5.977 4.642A2.903 2.903 0 003.132 2.31H1.468a.968.968 0 010-1.935h1.664a4.838 4.838 0 014.741 3.87l2.303 11.418a.968.968 0 01-.774 1.161h-.194z"/><path d="M10.176 23.597h-1.8a4.006 4.006 0 01-.367-7.992l17.813-1.616 1.558-7.808H7.273a.968.968 0 010-1.936H28.56a.967.967 0 01.745.358.967.967 0 01.223.803l-1.935 9.676a.968.968 0 01-.861.774L8.181 17.54a2.063 2.063 0 10.194 4.122h1.8a.968.968 0 010 1.935zM24.69 26.5a3.87 3.87 0 110-7.74 3.87 3.87 0 010 7.74zm0-5.805a1.936 1.936 0 100 3.87 1.936 1.936 0 000-3.87z"/><path d="M13.079 26.5a3.87 3.87 0 110-7.74 3.87 3.87 0 010 7.74zm0-5.805a1.936 1.936 0 100 3.87 1.936 1.936 0 000-3.87z"/><path d="M21.787 23.597h-5.805a.968.968 0 110-1.935h5.805a.968.968 0 110 1.935z"/></symbol><symbol viewBox="0 0 27 27" id="close" xmlns="http://www.w3.org/2000/svg"><path d="M25 2L2 25M2 2l23 23"/></symbol><symbol viewBox="0 0 16 16" id="close2" xmlns="http://www.w3.org/2000/svg"><path d="M2.707 1.293a1 1 0 00-1.414 1.414l1.414-1.414zm10.586 13.414a1 1 0 001.414-1.414l-1.414 1.414zm-12-12l12 12 1.414-1.414-12-12-1.414 1.414z"/><path d="M1.293 13.293a1 1 0 101.414 1.414l-1.414-1.414zM14.707 2.707a1 1 0 00-1.414-1.414l1.414 1.414zm-12 12l12-12-1.414-1.414-12 12 1.414 1.414z"/></symbol><symbol viewBox="0 0 14 14" id="comments" xmlns="http://www.w3.org/2000/svg"><path d="M3.063 13.3H2.36l.422-.59c.309-.45.534-.985.646-1.688-1.996-.9-3.065-2.588-3.065-4.81C.363 2.81 2.923.7 7.057.7s6.693 2.11 6.693 5.513c0 3.43-2.503 5.512-6.693 5.512h-.282c-.675.731-1.8 1.575-3.712 1.575zM7 1.431c-3.74 0-5.962 1.772-5.962 4.782 0 2.559 1.575 3.712 2.869 4.246l.253.113-.028.281c-.085.647-.225 1.21-.45 1.688 1.35-.17 2.137-.844 2.559-1.407l.112-.14h.619c5.372 0 5.963-3.347 5.963-4.781C12.963 3.23 10.74 1.43 7 1.43z"/></symbol><symbol viewBox="0 0 41 51" id="dowload" xmlns="http://www.w3.org/2000/svg"><path d="M40.621 11.774L29.514.837a.822.822 0 00-.577-.24H8.447C5.35.598 2.84 3.248 2.84 6.515V28.35H.11v14.8h2.73v1.334c0 3.258 2.52 5.917 5.608 5.917h26.835c3.098 0 5.608-2.65 5.608-5.916V12.42a.888.888 0 00-.269-.647zM28.658 2.43l9.662 9.523h-5.26c-2.43 0-4.402-1.942-4.402-4.323v-5.2zm10.539 42.056c0 2.28-1.754 4.133-3.915 4.133H8.447c-2.161 0-3.914-1.852-3.914-4.133V43.15H23.16c3.635 0 6.574-3.317 6.574-7.401s-2.949-7.401-6.575-7.401H4.534V6.514c0-2.28 1.753-4.133 3.914-4.133h18.518v5.25c0 3.366 2.729 6.105 6.096 6.105h6.136v30.75zm-33.848-5v-7.471h2.86c.826 0 1.473.209 1.931.637.459.428.698.986.698 1.683 0 .698-.23 1.265-.697 1.684-.469.418-1.116.637-1.933.637H6.594v2.83H5.35zm7.003 0v-7.471h2.47c.947 0 1.713.298 2.311.886.598.588.887 1.355.887 2.281v1.136c0 .936-.3 1.693-.887 2.28-.598.588-1.364.887-2.31.887h-2.471zm11.614-4.184v.996h-3.008v3.187h-1.255v-7.47h4.781v.995h-3.536v2.282h3.018v.01z"/><path d="M9.254 35.282c.23-.25.349-.558.349-.937 0-.378-.12-.697-.349-.946-.229-.249-.578-.379-1.046-.379H6.594v2.64h1.614c.468-.01.807-.13 1.046-.378zm5.568-2.262h-1.225v5.48h1.225c.598 0 1.076-.2 1.425-.608.348-.408.527-.926.527-1.563v-1.146c0-.628-.179-1.146-.527-1.554-.35-.408-.827-.608-1.425-.608z"/></symbol><symbol viewBox="0 0 23 15" id="filter" xmlns="http://www.w3.org/2000/svg"><path d="M0 3.53h22.059"/><circle cx="7.059" cy="3.529" r="2.779"/><path d="M22.059 11.47H0M13.103 11.47a2.78 2.78 0 115.559 0 2.78 2.78 0 01-5.559 0z"/></symbol><symbol viewBox="0 0 23 22" id="heart" xmlns="http://www.w3.org/2000/svg"><path d="M1 6.795C1 13.273 9.82 19.75 11.5 21c.315-.227 10.5-7.84 10.5-14.205C22 3.614 19.585 1 16.645 1c-1.89 0-3.675 1.136-4.62 2.84a.564.564 0 01-.945 0C10.135 2.024 8.35 1 6.46 1 3.415 1 1 3.614 1 6.795z"/></symbol><symbol viewBox="0 0 18 15" id="heart2" xmlns="http://www.w3.org/2000/svg"><path d="M15.42 1.69l.335-.339-.335.339.063.062a4.09 4.09 0 010 5.783l-.504.5-6.258 6.207-6.258-6.207-.504-.5a4.09 4.09 0 010-5.783l.063-.062c1.6-1.587 4.244-1.587 5.843 0l.504.5.352.348.352-.349.504-.5c1.599-1.586 4.243-1.586 5.843 0z"/></symbol><symbol viewBox="0 0 27 26" id="heart3" xmlns="http://www.w3.org/2000/svg"><path d="M12.95 3.7l.55.595.55-.595.804-.87c2.567-2.774 6.781-2.774 9.348 0l.55-.508-.55.509.1.109c2.597 2.808 2.597 7.469 0 10.277l-.804.869-9.998 10.81-9.998-10.81-.804-.869C.101 10.41.101 5.747 2.698 2.94l.1-.11C5.365.057 9.58.057 12.146 2.83l.803.87z"/></symbol><symbol viewBox="0 0 29 37" id="logo" xmlns="http://www.w3.org/2000/svg"><path d="M15.2 2s-1.089 3.934 1.402 7.257c3.044 4.052 11.38 8.291 11.398 15.395 0 9.919-9.997 10.97-9.997 10.97s5.327-4.95 3.978-10.054c-1.003-3.764-4.912-5.799-6.486-9.292-1.332-2.95-1.003-5.493-1.003-5.493S9.476 15.19 7.123 20.854c-.622 1.475-1.106 3.07-1.02 4.697.45 7.562 7.316 5.782 6.348 2.238-.71-2.662-4.29-3.374-5.95-7.749-.744-1.966-.692-4.9-.692-4.9S.17 21.414 1.104 27.806C2.108 34.96 9.286 38.267 14.163 34.3c4.878-3.968 3.407-9.546-1.263-14.48-4.116-4.34-5.5-8.936-4.203-11.75C10.41 4.34 15.201 2 15.201 2z"/><path d="M15.2 2s-1.089 3.934 1.402 7.257c3.044 4.052 11.38 8.291 11.398 15.395 0 9.919-9.997 10.97-9.997 10.97s5.327-4.95 3.978-10.054c-1.003-3.764-4.912-5.799-6.486-9.292-1.332-2.95-1.003-5.493-1.003-5.493S9.476 15.19 7.123 20.854c-.622 1.475-1.106 3.07-1.02 4.697.45 7.562 7.316 5.782 6.348 2.238-.71-2.662-4.29-3.374-5.95-7.749-.744-1.966-.692-4.9-.692-4.9S.17 21.414 1.104 27.806C2.108 34.96 9.286 38.267 14.163 34.3c4.878-3.968 3.407-9.546-1.263-14.48-4.116-4.34-5.5-8.936-4.203-11.75C10.41 4.34 15.201 2 15.201 2z"/><defs><linearGradient id="opaint0_linear" x1="31.462" y1="7.1" x2="-1.272" y2="35.219" gradientUnits="userSpaceOnUse"><stop stop-color="#FF2020"/><stop offset=".37" stop-color="#FFB763"/><stop offset=".708" stop-color="#75D7ED"/><stop offset="1" stop-color="#086397"/></linearGradient></defs></symbol><symbol viewBox="0 0 17 18" id="magnifier" xmlns="http://www.w3.org/2000/svg"><circle cx="6.5" cy="6.5" r="5.5"/><path d="M10.5 11.5L16 17"/></symbol><symbol viewBox="0 0 27 26" id="menu" xmlns="http://www.w3.org/2000/svg"><path fill-rule="evenodd" clip-rule="evenodd" d="M0 26h5v-5H0v5zm0-10.5h5v-5H0v5zM0 0v5h5V0H0zm11 26h5v-5h-5v5zm0-10.5h5v-5h-5v5zM11 0v5h5V0h-5zm11 26h5v-5h-5v5zm0-10.5h5v-5h-5v5zM22 0v5h5V0h-5z"/></symbol><symbol viewBox="0 0 18 18" id="messenger" xmlns="http://www.w3.org/2000/svg"><path d="M8.9.24C4.116.24.24 3.83.24 8.258c0 2.524 1.259 4.775 3.227 6.246v3.057l2.949-1.619c.787.219 1.62.336 2.484.336 4.784 0 8.662-3.59 8.662-8.02S13.683.238 8.9.238zm.861 10.8L7.556 8.687 3.25 11.04l4.734-5.027 2.26 2.353 4.25-2.353L9.76 11.04z"/></symbol><symbol viewBox="0 0 16 16" id="phone" xmlns="http://www.w3.org/2000/svg"><path d="M15.562 12.252l-2.05-2.05a1.489 1.489 0 00-1.06-.438c-.401 0-.778.155-1.06.438l-1.334 1.334-.147-.086c-1.036-.59-2.079-1.4-3.02-2.341-.941-.941-1.752-1.985-2.34-3.02l-.087-.147 1.334-1.334a1.5 1.5 0 000-2.12L3.744.438A1.496 1.496 0 002.684 0c-.384 0-.769.147-1.06.438l-.356.356C.074 1.989-.29 3.842.233 6.015c.508 2.104 1.8 4.272 3.638 6.114 1.837 1.837 4.006 3.13 6.113 3.638A7.81 7.81 0 0011.83 16c1.379 0 2.545-.438 3.372-1.268l.356-.357a1.5 1.5 0 00.004-2.123z"/></symbol><symbol viewBox="0 0 16 16" id="phone-fill" xmlns="http://www.w3.org/2000/svg"><path d="M15.562 12.252l-2.05-2.05a1.489 1.489 0 00-1.06-.438c-.401 0-.778.155-1.06.438l-1.334 1.334-.147-.086c-1.036-.59-2.079-1.4-3.02-2.341-.941-.941-1.752-1.985-2.34-3.02l-.087-.147 1.334-1.334a1.5 1.5 0 000-2.12L3.744.438A1.496 1.496 0 002.684 0c-.384 0-.769.147-1.06.438l-.356.356C.074 1.989-.29 3.842.233 6.015c.508 2.104 1.8 4.272 3.638 6.114 1.837 1.837 4.006 3.13 6.113 3.638A7.81 7.81 0 0011.83 16c1.379 0 2.545-.438 3.372-1.268l.356-.357a1.5 1.5 0 00.004-2.123z"/></symbol><symbol viewBox="0 0 22 22" id="phone2" xmlns="http://www.w3.org/2000/svg"><path d="M21.397 16.846l-2.819-2.819a2.047 2.047 0 00-1.457-.602c-.551 0-1.069.214-1.457.602l-1.834 1.834-.203-.118c-1.423-.81-2.858-1.924-4.152-3.218s-2.408-2.73-3.218-4.153l-.119-.202 1.835-1.834a2.061 2.061 0 000-2.915L5.148.602C4.748.202 4.22 0 3.691 0S2.633.203 2.234.602l-.49.49C.101 2.735-.4 5.283.321 8.272c.697 2.891 2.475 5.873 5.002 8.405 2.526 2.527 5.508 4.305 8.405 5.002.833.209 1.683.315 2.538.321 1.896 0 3.5-.602 4.636-1.744l.49-.49c.81-.804.81-2.115.005-2.92zm-.754 2.166l-.49.49c-.95.945-2.29 1.429-3.893 1.429a9.63 9.63 0 01-2.284-.293c-2.706-.658-5.514-2.329-7.905-4.72-2.391-2.392-4.068-5.2-4.72-7.906-.63-2.61-.226-4.805 1.141-6.172l.49-.49a.997.997 0 01.703-.292c.26 0 .518.107.704.292l2.818 2.82a.995.995 0 010 1.406l-2.11 2.11a.537.537 0 00-.095.624c.883 1.705 2.166 3.421 3.708 4.969 1.547 1.547 3.263 2.83 4.968 3.713a.539.539 0 00.624-.095l2.11-2.11a.995.995 0 011.407 0l2.819 2.819a1 1 0 01.005 1.406z"/></symbol><symbol viewBox="0 0 20 17" id="telegram" xmlns="http://www.w3.org/2000/svg"><path fill-rule="evenodd" clip-rule="evenodd" d="M10.519 13.417c-.728.709-1.45 1.406-2.164 2.108-.25.247-.531.383-.89.364-.245-.013-.382-.12-.457-.353-.547-1.7-1.103-3.395-1.648-5.097-.053-.165-.13-.245-.298-.297-1.29-.394-2.578-.797-3.864-1.206a2.197 2.197 0 01-.568-.261c-.264-.18-.303-.471-.066-.681.219-.194.48-.362.752-.47 1.577-.625 3.162-1.23 4.745-1.84 4.018-1.551 8.035-3.1 12.052-4.652.765-.295 1.352.12 1.272.947-.05.528-.188 1.048-.298 1.57-.872 4.119-1.745 8.238-2.622 12.356-.209.978-.896 1.233-1.7.64-1.348-.994-2.695-1.99-4.041-2.985-.065-.047-.132-.092-.205-.143zm-3.025 1.25l.045-.012c.009-.038.02-.076.024-.114.087-.934.178-1.867.253-2.803a.686.686 0 01.245-.496c1.243-1.111 2.477-2.23 3.715-3.345 1.37-1.235 2.74-2.469 4.104-3.709.084-.076.12-.207.178-.313-.129-.013-.267-.065-.383-.035-.16.041-.31.134-.452.223C12.2 5.967 9.18 7.874 6.155 9.774c-.171.108-.203.2-.138.387.223.64.426 1.287.636 1.932l.84 2.574z"/></symbol><symbol viewBox="0 0 21 22" id="user" xmlns="http://www.w3.org/2000/svg"><path d="M4.36 7.06a6.156 6.156 0 002.733 5.114C3.468 13.058.9 15.337.9 18.123c0 .618.408 1.108 1.036 1.492.629.385 1.498.676 2.469.895 1.944.437 4.327.589 6.095.589 1.768 0 4.151-.152 6.095-.59.971-.218 1.84-.51 2.469-.894.628-.384 1.036-.874 1.036-1.492 0-2.787-2.568-5.066-6.193-5.95a6.156 6.156 0 002.732-5.114C16.639 3.664 13.885.9 10.5.9 7.115.9 4.36 3.664 4.36 7.06zm1.445 0c0-2.597 2.107-4.71 4.695-4.71s4.695 2.113 4.695 4.71-2.107 4.71-4.695 4.71-4.695-2.113-4.695-4.71zM10.5 19.65c-2.53 0-4.548-.268-5.95-.604-.703-.168-1.248-.353-1.624-.528a2.337 2.337 0 01-.431-.248.448.448 0 01-.15-.166c.008-1.324.901-2.54 2.374-3.433 1.477-.894 3.521-1.451 5.781-1.451s4.303.556 5.78 1.45c1.473.893 2.366 2.11 2.375 3.434a.44.44 0 01-.149.165 2.31 2.31 0 01-.43.248c-.376.175-.92.36-1.623.528-1.402.337-3.422.605-5.953.605z"/></symbol><symbol viewBox="0 0 16 17" id="viber" xmlns="http://www.w3.org/2000/svg"><path d="M7.799 1.094c.12-.11.204-.126.621-.113.219.008.537.033.712.054a7.15 7.15 0 012.374.703c.768.376 1.26.731 1.911 1.379.609.61.947 1.074 1.306 1.792.5 1.003.784 2.195.832 3.506.018.448.006.549-.096.675-.195.249-.623.208-.769-.071-.047-.092-.06-.171-.074-.53a9.216 9.216 0 00-.141-1.33c-.303-1.664-1.101-2.994-2.377-3.948-1.063-.797-2.162-1.187-3.6-1.27-.488-.028-.572-.046-.682-.13-.205-.163-.215-.54-.017-.717zm3.052 3.294c-.515-.307-1.275-.534-1.969-.59-.252-.021-.39-.072-.484-.182a.466.466 0 01-.039-.579c.133-.206.338-.24.95-.148 1.555.228 2.759.949 3.547 2.12.445.66.72 1.435.815 2.266.033.305.033.859-.003.951a.579.579 0 01-.233.254.58.58 0 01-.43-.016c-.197-.099-.256-.258-.256-.687a4.09 4.09 0 00-.469-1.903 3.892 3.892 0 00-1.429-1.486zm.866 3.409c-.151.138-.43.143-.6.013-.122-.093-.161-.19-.19-.453-.032-.35-.093-.596-.2-.824-.225-.483-.621-.734-1.293-.816-.314-.037-.41-.074-.512-.194a.476.476 0 01.144-.716c.097-.048.137-.054.353-.04.133.007.33.03.435.053.505.107.892.3 1.222.608.426.402.659.888.761 1.586.07.456.041.635-.12.783zm3.825 6.718c-.188.488-.926 1.404-1.44 1.795-.467.353-.798.488-1.234.51-.357.016-.506-.015-.964-.203-3.596-1.48-6.468-3.69-8.748-6.726C1.966 8.305 1.06 6.66.438 4.955c-.36-.994-.377-1.426-.08-1.936.128-.214.673-.746 1.07-1.042.662-.492.966-.673 1.209-.725.167-.036.456-.007.64.06.09.03.229.102.307.153.487.322 1.842 2.053 2.285 2.918.253.494.338.858.258 1.13-.082.29-.218.445-.824.933-.244.197-.472.399-.507.453a1.19 1.19 0 00-.167.578c.002.427.28 1.201.643 1.798.282.463.786 1.056 1.286 1.51.586.538 1.103.904 1.688 1.193.75.373 1.209.467 1.544.312.085-.038.175-.09.202-.113.025-.023.222-.263.438-.53.415-.52.51-.605.794-.702.362-.123.73-.09 1.101.099.283.146.897.527 1.293.803.523.366 1.64 1.276 1.791 1.458.268.328.314.747.133 1.21z"/></symbol><symbol viewBox="0 0 19 15" id="weigher" xmlns="http://www.w3.org/2000/svg"><path d="M18.893 9.404c-.008-.04-.009-.084-.025-.12v-.001L15.259.979c-.004-.009-.012-.014-.016-.023-.016-.032-.037-.058-.059-.086-.017-.024-.03-.05-.05-.071-.01-.01-.02-.015-.03-.024-.024-.021-.054-.035-.082-.053-.016-.009-.03-.02-.045-.028-.012-.006-.02-.016-.031-.02l-.002-.001c-.01-.004-.022-.005-.033-.01-.03-.01-.062-.011-.094-.017-.044-.008-.086-.016-.132-.014-.009 0-.017-.003-.026-.002l-3.785.353A1.577 1.577 0 009.457.107c-.73 0-1.34.49-1.519 1.15l-3.794.354c-.028.003-.051.017-.078.023-.03.007-.062.008-.091.02-.004.001-.007 0-.01.002-.008.003-.013.01-.02.014-.033.015-.059.037-.087.057-.025.018-.052.03-.074.052l-.023.026c-.025.027-.04.058-.059.089-.014.022-.034.038-.045.062L.048 10.092v.002c-.013.03-.013.065-.021.097-.01.043-.027.085-.027.128v.002c0 2.262 1.884 4.102 4.2 4.102 2.316 0 4.2-1.84 4.2-4.102v-.002c0-.043-.016-.085-.027-.129-.007-.031-.008-.066-.02-.096l-.001-.002-3.286-7.407 3.028-.283c.271.464.777.782 1.363.782a1.57 1.57 0 001.487-1.048l2.839-.265-3.221 7.412c-.017.037-.018.08-.026.121-.006.035-.021.07-.021.104 0 2.262 1.884 4.102 4.2 4.102 2.316 0 4.2-1.84 4.2-4.102 0-.035-.015-.07-.022-.104zm-1.462-.473h-5.433l2.717-6.25 2.716 6.25zM4.2 3.638l2.71 6.106H1.49L4.2 3.638zm0 9.632c-1.462 0-2.683-1.022-2.958-2.372h5.916c-.275 1.35-1.496 2.372-2.958 2.372zM9.457 2.03a.39.39 0 01-.394-.385.39.39 0 01.394-.384.39.39 0 01.395.384.39.39 0 01-.395.385zm5.258 10.426c-1.462 0-2.683-1.02-2.958-2.37h5.916c-.275 1.35-1.496 2.37-2.958 2.37z"/></symbol><symbol viewBox="0 0 35 27" id="weigher2" xmlns="http://www.w3.org/2000/svg"><path d="M1 20.247l6.952-17.38 6.257 17.38c-.695 1.854-2.92 5.561-6.257 5.561-3.337 0-6.025-3.707-6.952-5.561zM1.695 20.246h11.819M20.466 20.247l6.952-17.38 6.257 17.38c-.696 1.854-2.92 5.561-6.257 5.561-3.337 0-6.025-3.707-6.952-5.561zM20.466 20.246h12.513M7.952 3.562h19.466"/><circle cx="17.685" cy="3.562" r="2.031"/></symbol></svg>