<svg width="23" height="23" fill="none" xmlns="http://www.w3.org/2000/svg"><path fill="#fff" d="M0 0h23v23H0z"/><path d="M5.618 22.082a4.834 4.834 0 100-9.669 4.834 4.834 0 000 9.669z" fill="#fff"/><path d="M5.618 22.717a5.476 5.476 0 01-5.47-5.47 5.476 5.476 0 015.47-5.469 5.476 5.476 0 015.47 5.47 5.476 5.476 0 01-5.47 5.47zm0-9.669a4.204 4.204 0 00-4.199 4.2 4.204 4.204 0 004.2 4.199 4.204 4.204 0 004.199-4.2 4.204 4.204 0 00-4.2-4.199z" fill="#000"/><path d="M3.435 20.066a.635.635 0 01-.449-1.084l4.366-4.365a.635.635 0 11.898.898l-4.365 4.364a.632.632 0 01-.45.187z" fill="#000"/><path d="M7.8 20.066a.632.632 0 01-.448-.186l-4.365-4.365a.635.635 0 11.898-.898l4.365 4.365a.635.635 0 01-.45 1.084z" fill="#000"/><path d="M5.618 10.586a4.834 4.834 0 100-9.668 4.834 4.834 0 000 9.668z" fill="#fff"/><path d="M5.618 11.221a5.476 5.476 0 01-5.47-5.47A5.476 5.476 0 015.619.284a5.476 5.476 0 015.47 5.47 5.476 5.476 0 01-5.47 5.468zm0-9.668a4.204 4.204 0 00-4.199 4.2 4.204 4.204 0 004.2 4.198 4.204 4.204 0 004.199-4.199 4.204 4.204 0 00-4.2-4.199z" fill="#000"/><path d="M7.848 6.387h-4.46a.635.635 0 110-1.27h4.46a.635.635 0 110 1.27z" fill="#000"/><path d="M5.618 8.617a.635.635 0 01-.635-.635v-4.46a.635.635 0 111.27 0v4.46c0 .35-.284.635-.635.635z" fill="#000"/><path d="M17.382 10.587a4.835 4.835 0 100-9.67 4.835 4.835 0 000 9.67z" fill="#fff"/><path d="M17.382 11.221a5.477 5.477 0 01-5.47-5.47 5.476 5.476 0 015.47-5.468 5.476 5.476 0 015.47 5.47 5.476 5.476 0 01-5.47 5.468zm0-9.668a4.204 4.204 0 00-4.2 4.2 4.204 4.204 0 004.2 4.198c2.316 0 4.2-1.883 4.2-4.199a4.204 4.204 0 00-4.2-4.199z" fill="#000"/><path d="M19.612 6.387h-4.46a.635.635 0 110-1.27h4.46a.635.635 0 010 1.27z" fill="#000"/><path d="M17.382 22.082a4.835 4.835 0 100-9.67 4.835 4.835 0 000 9.67z" fill="#fff"/><path d="M17.382 22.717a5.477 5.477 0 01-5.47-5.47 5.476 5.476 0 015.47-5.469 5.476 5.476 0 015.47 5.47 5.476 5.476 0 01-5.47 5.47zm0-9.669a4.205 4.205 0 00-4.2 4.2 4.204 4.204 0 004.2 4.199c2.316 0 4.2-1.884 4.2-4.2a4.204 4.204 0 00-4.2-4.199z" fill="#000"/><path d="M19.612 17.883h-4.46a.635.635 0 110-1.27h4.46a.635.635 0 010 1.27zm-2.231-1.618a.801.801 0 11.002-1.602.801.801 0 01-.002 1.602zm0-1.27a.47.47 0 10.003.94.47.47 0 00-.003-.94zm0 4.836a.8.8 0 11.001-1.6.8.8 0 010 1.6zm0-1.27a.47.47 0 10.002.94.47.47 0 00-.002-.94z" fill="#000"/><path d="M5.618 22.082a4.834 4.834 0 100-9.669 4.834 4.834 0 000 9.669z" fill="#fff"/><path d="M5.618 22.717a5.476 5.476 0 01-5.47-5.47 5.476 5.476 0 015.47-5.469 5.476 5.476 0 015.47 5.47 5.476 5.476 0 01-5.47 5.47zm0-9.669a4.204 4.204 0 00-4.199 4.2 4.204 4.204 0 004.2 4.199 4.204 4.204 0 004.199-4.2 4.204 4.204 0 00-4.2-4.199z" fill="#000"/><path d="M3.435 20.066a.635.635 0 01-.449-1.084l4.366-4.365a.635.635 0 11.898.898l-4.365 4.364a.632.632 0 01-.45.187z" fill="#000"/><path d="M7.8 20.066a.632.632 0 01-.448-.186l-4.365-4.365a.635.635 0 11.898-.898l4.365 4.365a.635.635 0 01-.45 1.084z" fill="#000"/><path d="M5.618 10.586a4.834 4.834 0 100-9.668 4.834 4.834 0 000 9.668z" fill="#fff"/><path d="M5.618 11.221a5.476 5.476 0 01-5.47-5.47A5.476 5.476 0 015.619.284a5.476 5.476 0 015.47 5.47 5.476 5.476 0 01-5.47 5.468zm0-9.668a4.204 4.204 0 00-4.199 4.2 4.204 4.204 0 004.2 4.198 4.204 4.204 0 004.199-4.199 4.204 4.204 0 00-4.2-4.199z" fill="#000"/><path d="M7.848 6.387h-4.46a.635.635 0 110-1.27h4.46a.635.635 0 110 1.27z" fill="#000"/><path d="M5.618 8.617a.635.635 0 01-.635-.635v-4.46a.635.635 0 111.27 0v4.46c0 .35-.284.635-.635.635z" fill="#000"/><path d="M17.382 10.587a4.835 4.835 0 100-9.67 4.835 4.835 0 000 9.67z" fill="#fff"/><path d="M17.382 11.221a5.477 5.477 0 01-5.47-5.47 5.476 5.476 0 015.47-5.468 5.476 5.476 0 015.47 5.47 5.476 5.476 0 01-5.47 5.468zm0-9.668a4.204 4.204 0 00-4.2 4.2 4.204 4.204 0 004.2 4.198c2.316 0 4.2-1.883 4.2-4.199a4.204 4.204 0 00-4.2-4.199z" fill="#000"/><path d="M19.612 6.387h-4.46a.635.635 0 110-1.27h4.46a.635.635 0 010 1.27z" fill="#000"/><path d="M17.382 22.082a4.835 4.835 0 100-9.67 4.835 4.835 0 000 9.67z" fill="#fff"/><path d="M17.382 22.717a5.477 5.477 0 01-5.47-5.47 5.476 5.476 0 015.47-5.469 5.476 5.476 0 015.47 5.47 5.476 5.476 0 01-5.47 5.47zm0-9.669a4.205 4.205 0 00-4.2 4.2 4.204 4.204 0 004.2 4.199c2.316 0 4.2-1.884 4.2-4.2a4.204 4.204 0 00-4.2-4.199z" fill="#000"/><path d="M19.612 17.883h-4.46a.635.635 0 110-1.27h4.46a.635.635 0 010 1.27zm-2.231-1.618a.801.801 0 11.002-1.602.801.801 0 01-.002 1.602zm0 3.566a.8.8 0 11.001-1.6.8.8 0 010 1.6z" fill="#000"/></svg>