<svg width="26" height="37" fill="none" xmlns="http://www.w3.org/2000/svg"><path d="M19.247 33.186H3.442a.287.287 0 01-.288-.288V18.53c0-.159.129-.287.288-.287h15.805c.159 0 .288.128.288.287v14.368a.287.287 0 01-.288.288zM3.73 32.61h15.23V18.817H3.73v13.794z" fill="#282828" stroke="#282828" stroke-width=".3"/><path d="M7.755 29.306H6.318v1.437h1.437v-1.437zm4.309 0h-1.437v1.437h1.437v-1.437zm4.31 0h-1.436v1.437h1.436v-1.437zm-8.619-2.873H6.318v1.436h1.437v-1.436zm4.309 0h-1.437v1.436h1.437v-1.436zm4.31 0h-1.436v1.436h1.436v-1.436zm-8.619-2.874H6.318v1.437h1.437v-1.437zm4.309 0h-1.437v1.437h1.437v-1.437zm4.31 0h-1.436v1.437h1.436v-1.437zm-8.619-2.874H6.318v1.437h1.437v-1.437zm4.309 0h-1.437v1.437h1.437v-1.437zm4.31 0h-1.436v1.437h1.436v-1.437z" fill="#282828" stroke="#282828" stroke-width=".3"/><path d="M17.449 8.097v-3.29c1.315 0 2.631 0 3.29.658.657.658.657 1.315.657 2.63v.002H17.45z" fill="#E44937"/><path d="M17.092 36.06H5.597a.287.287 0 01-.23-.116l-2.155-2.873a.287.287 0 01.23-.46h15.805a.287.287 0 01.23.46l-2.155 2.873a.287.287 0 01-.23.115zM5.74 35.484h11.207l1.724-2.3H4.016l1.725 2.3zm12.789-19.541H4.16a.287.287 0 01-.287-.287v-4.31c0-.16.129-.288.287-.288h14.37c.159 0 .287.129.287.287v4.31a.287.287 0 01-.287.288zM4.448 15.37h13.794v-3.736H4.448v3.736z" fill="#282828" stroke="#282828" stroke-width=".3"/><path d="M19.248 18.817H3.443a.288.288 0 01-.204-.084l-2.155-2.155A.287.287 0 011 16.374V8.472c0-.159.129-.288.287-.288h4.31c.16 0 .288.129.288.288v2.586h10.92V8.472c0-.159.13-.288.288-.288h4.31c.16 0 .288.129.288.288v7.902c0 .077-.03.15-.084.204l-2.156 2.155a.287.287 0 01-.203.084zm-15.686-.575h15.567l1.987-1.987V8.76H17.38v2.586a.287.287 0 01-.287.288H5.598a.287.287 0 01-.287-.288V8.76H1.575v7.496l1.987 1.987z" fill="#282828" stroke="#282828" stroke-width=".3"/><path d="M17.093 11.633H5.598a.287.287 0 01-.287-.288V1.287a.287.287 0 01.49-.203L7.71 2.992l1.24-1.864a.287.287 0 01.442-.044l1.952 1.952 1.952-1.952a.287.287 0 01.443.044l1.242 1.864 1.908-1.908a.287.287 0 01.49.203v10.058a.287.287 0 01-.287.288zm-11.208-.575h10.92V1.981l-1.664 1.665a.289.289 0 01-.443-.044L13.456 1.74l-1.908 1.907a.287.287 0 01-.406 0L9.235 1.739 7.992 3.602a.287.287 0 01-.442.044L5.885 1.981v9.077z" fill="#282828" stroke="#282828" stroke-width=".3"/><path d="M21.405 8.76h-4.311a.287.287 0 01-.287-.288V4.88c0-.159.128-.288.287-.288h2.155a2.445 2.445 0 012.443 2.443v1.437a.287.287 0 01-.287.287zm-4.024-.576h3.736v-1.15a1.87 1.87 0 00-1.868-1.867h-1.868v3.017z" fill="#282828" stroke="#282828" stroke-width=".3"/><path d="M5.606 8.097v-3.29c-1.315 0-2.632 0-3.29.658-.658.658-.658 1.315-.658 2.629v.003h3.948z" fill="#E44937"/><path d="M5.598 8.76h-4.31A.287.287 0 011 8.471V7.035a2.445 2.445 0 012.443-2.443h2.155c.159 0 .287.129.287.288v3.592a.287.287 0 01-.287.287zm-4.023-.576H5.31V5.167H3.443a1.87 1.87 0 00-1.868 1.868v1.15zm12.643.576H8.471a.287.287 0 010-.576h5.747a.287.287 0 010 .575zm0-2.156H8.471a.287.287 0 010-.575h5.747a.287.287 0 010 .575z" fill="#282828" stroke="#282828" stroke-width=".3"/><path d="M21.22 16.362l.044-.044v-4.254c0-.076.062-.137.138-.137h2.155a2.295 2.295 0 012.293 2.292v15.087a2.295 2.295 0 01-2.293 2.293h-4.31a.137.137 0 01-.138-.137V18.53c0-.037.014-.072.04-.097l2.071-2.071zm.49.322h0a.438.438 0 00.129-.31v-3.873h1.718a1.72 1.72 0 011.718 1.718v15.087a1.72 1.72 0 01-1.718 1.718h-3.873V18.711l2.027-2.027zm-2.282 1.859l-.044.044v12.737h4.173a2.02 2.02 0 002.018-2.018V14.22a2.02 2.02 0 00-2.018-2.018h-2.018v4.174a.138.138 0 01-.04.097l-2.071 2.07z" fill="#E44937" stroke="#282828" stroke-width=".3"/></svg>