<svg width="34" height="30" fill="none" xmlns="http://www.w3.org/2000/svg"><g clip-path="url(#clip0)"><path d="M9.033.528l.531 2.105H6.377L6.908.528h2.125z" fill="#CCD1D9"/><path d="M13.812.528l1.594 2.105H9.562L9.032.528h4.78zm-6.904 0l-.532 2.105H.533L2.127.528h4.78z" fill="#E44937"/><path d="M6.377 2.633h3.188V4.74H6.377V2.633z" fill="#E6E9ED"/><path d="M15.407 2.633V14.74H.533V2.633h5.843V4.74h3.188V2.633h5.843z" fill="#E44937"/><path d="M7.426 23.675a.529.529 0 01-.531-.526v-6.317c0-.29.237-.526.53-.526a.53.53 0 01.532.526v6.317c0 .29-.238.526-.531.526z" fill="#282828"/><path d="M21.77 23.675H7.426a.529.529 0 01-.531-.526c0-.291.237-.527.53-.527H21.77c.294 0 .531.236.531.527 0 .29-.237.526-.53.526z" fill="#282828"/><path d="M20.176 25.254a.532.532 0 01-.376-.154.522.522 0 010-.744l1.594-1.579a.534.534 0 01.751 0 .522.522 0 010 .744l-1.594 1.58a.53.53 0 01-.375.153z" fill="#282828"/><path d="M21.77 23.675a.532.532 0 01-.376-.154L19.8 21.942a.522.522 0 010-.744.534.534 0 01.751 0l1.594 1.579a.522.522 0 010 .744.53.53 0 01-.375.154zM28.68 9.99a.529.529 0 01-.532-.527V3.147a.53.53 0 01.532-.526c.293 0 .53.235.53.526v6.316a.528.528 0 01-.53.527z" fill="#282828"/><path d="M28.678 3.673H17.519a.529.529 0 01-.53-.526c0-.29.237-.526.53-.526h11.16c.293 0 .53.235.53.526 0 .29-.237.526-.531.526z" fill="#282828"/><path d="M17.52 3.673a.532.532 0 01-.376-.154.522.522 0 010-.744l1.594-1.579a.534.534 0 01.75 0 .522.522 0 010 .744l-1.593 1.58a.533.533 0 01-.375.153z" fill="#282828"/><path d="M19.114 5.252a.532.532 0 01-.376-.154L17.144 3.52a.522.522 0 010-.744.534.534 0 01.751 0l1.594 1.58a.522.522 0 010 .743.533.533 0 01-.375.154zm14.354 21.59H23.91a.529.529 0 01-.531-.526V11.58a.53.53 0 01.531-.527l9.558-.003a.53.53 0 01.532.526v14.739a.53.53 0 01-.532.526zm-9.027-1.053h8.496V12.104l-8.496.003v13.682z" fill="#282828"/><path d="M33.466 28.42h-9.562a.529.529 0 01-.531-.526v-1.579c0-.29.238-.526.531-.526.294 0 .531.236.531.526v1.053h8.5v-1.053c0-.29.237-.526.53-.526a.53.53 0 01.532.526v1.58c0 .29-.238.526-.531.526z" fill="#282828"/><path d="M33.466 30h-9.562a.529.529 0 01-.531-.526v-1.58c0-.29.238-.526.531-.526.294 0 .531.236.531.527v1.052h8.5v-1.052c0-.291.237-.527.53-.527a.53.53 0 01.532.527v1.579c0 .29-.238.526-.531.526zm-4.779-8.42c-1.465 0-2.656-1.18-2.656-2.632 0-1.45 1.192-2.63 2.656-2.63 1.465 0 2.656 1.18 2.656 2.63 0 1.452-1.192 2.632-2.656 2.632zm0-4.21c-.878 0-1.593.709-1.593 1.578 0 .87.715 1.58 1.593 1.58a1.59 1.59 0 001.594-1.58c0-.87-.715-1.577-1.594-1.577zm-4.779-3.687a.529.529 0 01-.531-.527c0-.29.238-.526.531-.526.585 0 1.06-.471 1.06-1.05 0-.29.238-.526.531-.526.294 0 .531.236.531.527a2.115 2.115 0 01-2.122 2.102zm9.56 0a2.115 2.115 0 01-2.122-2.102c0-.291.237-.527.53-.527a.53.53 0 01.532.527c0 .579.475 1.049 1.06 1.049.293 0 .531.236.531.526a.53.53 0 01-.531.527zM31.877 26.84a.529.529 0 01-.531-.526c0-1.16.952-2.103 2.122-2.103.294 0 .532.235.532.526a.53.53 0 01-.532.526c-.585 0-1.06.472-1.06 1.051a.528.528 0 01-.531.526zm-6.375.003a.529.529 0 01-.531-.527 1.06 1.06 0 00-1.063-1.054.529.529 0 01-.531-.526.53.53 0 01.531-.527c1.172 0 2.125.945 2.125 2.107a.528.528 0 01-.531.527zM15.408 15.266H.531A.529.529 0 010 14.74V2.632c0-.29.238-.526.531-.526h14.877c.294 0 .531.236.531.526V14.74c0 .29-.237.526-.53.526zM1.062 14.214h13.815V3.159H1.062v11.055z" fill="#282828"/><path d="M.53 3.16a.524.524 0 01-.424-.842L1.701.213a.534.534 0 01.744-.105.524.524 0 01.106.737L.956 2.95a.533.533 0 01-.425.21zm14.88-.001a.532.532 0 01-.427-.21L13.39.842a.522.522 0 01.106-.736.533.533 0 01.743.105l1.594 2.105a.528.528 0 01-.424.842z" fill="#282828"/><path d="M13.815 1.053H2.127a.529.529 0 01-.531-.526c0-.29.237-.526.53-.526h11.689c.293 0 .53.235.53.526 0 .29-.236.526-.53.526z" fill="#282828"/><path d="M6.377 3.159a.525.525 0 01-.515-.654l.53-2.106a.53.53 0 01.644-.383c.285.07.459.356.387.639l-.53 2.105a.533.533 0 01-.516.399zm3.186 0a.53.53 0 01-.514-.399L8.519.655A.531.531 0 019.548.4l.53 2.105a.525.525 0 01-.516.654z" fill="#282828"/><path d="M6.377 5.266a.529.529 0 01-.531-.527V2.632c0-.29.237-.526.53-.526a.53.53 0 01.532.526V4.74a.53.53 0 01-.531.527z" fill="#282828"/><path d="M9.563 5.266H6.377a.529.529 0 01-.531-.527c0-.29.237-.526.53-.526h3.187c.293 0 .531.235.531.526a.529.529 0 01-.531.527z" fill="#282828"/><path d="M9.562 5.266a.529.529 0 01-.53-.527V2.632c0-.29.237-.526.53-.526a.53.53 0 01.532.526V4.74a.529.529 0 01-.532.527zM6.91 11.581H2.657a.529.529 0 01-.531-.526c0-.29.238-.526.531-.526H6.91c.294 0 .531.235.531.526 0 .29-.237.526-.53.526zM4.784 13.16H2.658a.529.529 0 01-.531-.526c0-.29.238-.526.531-.526h2.126c.293 0 .53.235.53.526 0 .29-.236.526-.53.526z" fill="#282828"/></g><defs><clipPath id="clip0"><path fill="#fff" d="M0 0h34v30H0z"/></clipPath></defs></svg>