<svg width="30" height="30" fill="none" xmlns="http://www.w3.org/2000/svg"><g filter="url(#filter0_d)" fill="#fff"><path d="M8.06 1.94a1.5 1.5 0 10-2.12 2.12l2.12-2.12zm14.143 18.384a1.5 1.5 0 102.121-2.121l-2.121 2.121zM5.939 4.061l16.264 16.263 2.121-2.121L8.061 1.939 5.939 4.061z"/><path d="M5.94 18.203a1.5 1.5 0 102.12 2.121l-2.12-2.121zM24.323 4.06a1.5 1.5 0 10-2.121-2.122l2.121 2.122zM8.061 20.324L24.324 4.061l-2.121-2.122L5.939 18.203l2.122 2.121z"/></g><defs><filter id="filter0_d" x=".879" y=".879" width="28.506" height="28.506" filterUnits="userSpaceOnUse" color-interpolation-filters="sRGB"><feFlood flood-opacity="0" result="BackgroundImageFix"/><feColorMatrix in="SourceAlpha" values="0 0 0 0 0 0 0 0 0 0 0 0 0 0 0 0 0 0 127 0"/><feOffset dy="4"/><feGaussianBlur stdDeviation="2"/><feColorMatrix values="0 0 0 0 0 0 0 0 0 0 0 0 0 0 0 0 0 0 0.25 0"/><feBlend in2="BackgroundImageFix" result="effect1_dropShadow"/><feBlend in="SourceGraphic" in2="effect1_dropShadow" result="shape"/></filter></defs></svg>