<svg width="668" height="261" fill="none" xmlns="http://www.w3.org/2000/svg"><g clip-path="url(#clip0)"><path d="M0 204.568V165.77L82.73 7.054h44.005L44.005 165.77h80.97v-59.959h40.485v59.959h35.204v38.798H165.46v49.378h-40.485v-49.378H0zm249.936 19.751c-22.296-24.454-33.444-55.727-33.444-93.819 0-38.092 11.148-69.365 33.444-93.819C272.232 12.227 299.222 0 330.906 0c31.683 0 58.674 12.227 80.969 36.681 22.297 24.454 33.444 55.727 33.444 93.819 0 38.092-11.147 69.365-33.444 93.819C389.58 248.773 362.589 261 330.906 261c-31.684 0-58.674-12.227-80.97-36.681zm28.867-161.538c-13.377 15.99-20.066 38.562-20.066 67.719 0 29.157 6.689 51.73 20.066 67.719 13.613 15.989 30.98 23.984 52.103 23.984 21.122 0 38.372-7.995 51.75-23.984 13.612-15.989 20.418-38.562 20.418-67.719 0-29.157-6.806-51.73-20.418-67.719-13.378-15.99-30.628-23.984-51.75-23.984-21.123 0-38.49 7.995-52.103 23.984zm187.722 141.787V165.77L549.254 7.054h44.006L510.53 165.77h80.969v-59.959h40.485v59.959h35.205v38.798h-35.205v49.378h-40.485v-49.378H466.525z" fill="#FFB321"/></g><defs><clipPath id="clip0"><path fill="#fff" d="M0 0h668v261H0z"/></clipPath></defs></svg>