<svg width="202" height="251" fill="none" xmlns="http://www.w3.org/2000/svg"><path d="M142.548-3.966s-10.44 37.365 13.419 68.932c29.154 38.493 109.005 78.758 109.167 146.241 0 94.219-95.749 104.204-95.749 104.204s51.021-47.028 38.101-95.507c-9.607-35.755-47.047-55.081-62.122-88.26-12.758-28.024-9.607-52.182-9.607-52.182s-48.042 41.875-70.57 95.668c-5.966 14.012-10.602 29.151-9.778 44.613 4.31 71.832 70.071 54.921 60.8 21.26-6.791-25.286-41.089-32.051-56.988-73.603-7.126-18.683-6.628-46.546-6.628-46.546s-54.01 59.592-45.063 120.31c9.616 67.967 78.365 99.373 125.076 61.685 46.721-37.687 32.632-90.676-12.097-137.543-39.422-41.231-52.677-84.878-40.255-111.614C96.66 18.26 142.548-3.966 142.548-3.966z" stroke="#DE3B28" stroke-width="12" stroke-miterlimit="10"/></svg>