<svg width="458" height="575" fill="none" xmlns="http://www.w3.org/2000/svg"><path d="M240.583 12s-18.005 64.442 23.142 118.884C314.007 197.27 451.719 266.713 452 383.096c0 162.494-165.133 179.715-165.133 179.715s87.993-81.108 65.71-164.715c-16.568-61.665-81.138-94.996-107.138-152.217-22.002-48.331-16.568-89.996-16.568-89.996s-82.855 72.22-121.706 164.993c-10.291 24.166-18.286 50.276-16.866 76.941 7.434 123.885 120.848 94.72 104.859 36.666-11.712-43.608-70.864-55.276-98.284-126.939-12.29-32.221-11.43-80.275-11.43-80.275S-7.704 330.044 7.723 434.761C24.31 551.979 142.878 606.144 223.438 541.145c80.576-64.997 56.277-156.383-20.863-237.212-67.989-71.109-90.85-146.384-69.426-192.492C161.444 50.331 240.583 12 240.583 12z" stroke="#DE3B28" stroke-width="12" stroke-miterlimit="10"/></svg>