<svg width="30" height="30" fill="none" xmlns="http://www.w3.org/2000/svg"><path d="M30 15c0 8.284-6.716 15-15 15-8.284 0-15-6.716-15-15C0 6.716 6.716 0 15 0c8.284 0 15 6.716 15 15z" fill="#D34836"/><path d="M15.193 24C10.093 24 6 20.196 6 15.5S10.092 7 15.193 7c2.32 0 4.455.754 6.153 2.214l-2.491 2.235c-.979-.884-2.32-1.31-3.662-1.31-3.18 0-5.723 2.434-5.723 5.354s2.535 5.354 5.723 5.354c2.417 0 4.811-1.31 5.197-3.654h-5.197v-2.92h8.666c.096.466.141.932.141 1.419C24 20.545 20.479 24 15.193 24z" fill="#fff"/></svg>