<svg width="19" height="19" fill="none" xmlns="http://www.w3.org/2000/svg"><path d="M19 9.5a9.5 9.5 0 11-19 0 9.5 9.5 0 0119 0z" fill="#FFB321"/><mask id="path-2-inside-1" fill="#fff"><path d="M9.5 4.75a4.751 4.751 0 00-4.705 4.132.396.396 0 10.785.102A3.952 3.952 0 019.5 5.542c1.095 0 2.078.446 2.794 1.164l-.815.815 2.375.396-.396-2.375-.605.605A4.728 4.728 0 009.5 4.75zm4.32 4.915a.396.396 0 00-.4.35 3.952 3.952 0 01-3.92 3.443 3.931 3.931 0 01-2.983-1.371l.608-.608-2.375-.396.396 2.375.81-.81A4.73 4.73 0 009.5 14.25a4.751 4.751 0 004.705-4.132.397.397 0 00-.386-.453z"/></mask><path d="M9.5 4.75a4.751 4.751 0 00-4.705 4.132.396.396 0 10.785.102A3.952 3.952 0 019.5 5.542c1.095 0 2.078.446 2.794 1.164l-.815.815 2.375.396-.396-2.375-.605.605A4.728 4.728 0 009.5 4.75zm4.32 4.915a.396.396 0 00-.4.35 3.952 3.952 0 01-3.92 3.443 3.931 3.931 0 01-2.983-1.371l.608-.608-2.375-.396.396 2.375.81-.81A4.73 4.73 0 009.5 14.25a4.751 4.751 0 004.705-4.132.397.397 0 00-.386-.453z" fill="#fff"/><path d="M4.795 8.882l1.48.243.004-.025.003-.024-1.487-.194zm.785.102l-1.488-.193-.003.024-.002.025 1.493.144zm6.714-2.278l1.06 1.06 1.06-1.059-1.058-1.06-1.062 1.059zm-.815.815l-1.06-1.06-2.062 2.06 2.876.48.246-1.48zm2.375.396l-.246 1.48 2.071.345-.345-2.072-1.48.247zm-.396-2.375l1.48-.247-.48-2.875-2.06 2.061 1.06 1.06zm-.605.605l-1.061 1.06 1.06 1.062 1.062-1.061-1.061-1.061zm.568 3.869l1.487.193.001-.01.002-.01-1.49-.173zm-6.904 2.07l-1.06-1.06-.988.988.915 1.056 1.133-.983zm.608-.607l1.06 1.06 2.062-2.06-2.875-.48-.247 1.48zm-2.375-.396l.247-1.48-2.072-.345.345 2.072 1.48-.247zm.396 2.375l-1.48.247.48 2.875 2.06-2.061-1.06-1.06zm.81-.81l1.122-.997-1.057-1.19-1.125 1.126 1.06 1.06zm8.25-2.53l-1.486-.214-.001.01-.001.01 1.487.194zM9.5 3.25c-3.175 0-5.793 2.373-6.193 5.439l2.975.387A3.251 3.251 0 019.5 6.25v-3zM3.315 8.64c-.042.25-.032.507.028.754l2.915-.709c.035.144.041.293.017.44l-2.96-.485zm.028.754c.06.247.17.48.321.684l2.407-1.79c.089.118.152.253.187.397l-2.915.71zm.321.684c.152.204.343.375.563.504l1.517-2.588c.128.075.239.174.327.293l-2.407 1.79zm.563.504c.219.128.462.211.714.244l.387-2.975c.147.02.288.068.416.143l-1.517 2.588zm.714.244c.252.033.508.015.753-.053l-.805-2.89c.143-.04.292-.05.439-.032l-.387 2.975zm.753-.053c.245-.069.474-.185.673-.344l-1.87-2.346c.116-.093.25-.16.392-.2l.805 2.89zm.673-.344c.198-.158.363-.355.485-.578L4.215 8.419c.07-.13.167-.244.283-.336l1.869 2.346zm.485-.578a1.9 1.9 0 00.22-.722L4.088 8.84c.014-.147.058-.29.128-.42l2.637 1.43zm.215-.673A2.452 2.452 0 019.5 7.042v-3A5.452 5.452 0 004.092 8.79l2.975.387zM9.5 7.042a2.43 2.43 0 011.732.723l2.124-2.118A5.428 5.428 0 009.5 4.042v3zm1.733-1.397l-.815.815 2.122 2.121.815-.814-2.122-2.122zm0 3.355l2.375.396.493-2.959-2.375-.396-.493 2.96zm4.1-1.33l-.395-2.375-2.96.493.397 2.375 2.959-.493zm-2.935-3.189l-.606.605 2.122 2.122.605-.606-2.121-2.121zm1.516.606A6.228 6.228 0 009.5 3.25v3c.89 0 1.699.363 2.292.957l2.122-2.12zm-.073 3.079a1.896 1.896 0 00-1.278.47l1.98 2.255a1.11 1.11 0 01-.745.274l.043-3zm-1.278.47c-.353.31-.578.74-.633 1.207l2.98.345a1.104 1.104 0 01-.368.703l-1.98-2.254zm-.63 1.186A2.451 2.451 0 019.5 11.958v3a5.452 5.452 0 005.408-4.749l-2.975-.387zM9.5 11.958c-.735 0-1.39-.325-1.85-.854L5.385 13.07A5.432 5.432 0 009.5 14.957v-3zm-1.922 1.19l.608-.608-2.122-2.121-.607.607 2.121 2.122zM7.372 10l-2.375-.396-.494 2.959 2.375.396.494-2.96zM3.27 11.33l.396 2.375 2.96-.493-.396-2.375-2.96.493zm2.936 3.189l.811-.811-2.12-2.121-.812.81 2.121 2.122zm-1.37-.875A6.231 6.231 0 009.5 15.75v-3a3.23 3.23 0 01-2.422-1.1l-2.242 1.994zM9.5 15.75c3.175 0 5.793-2.373 6.193-5.438l-2.975-.388A3.251 3.251 0 019.5 12.75v3zm6.19-5.418c.038-.267.02-.539-.056-.798l-2.881.834a1.104 1.104 0 01-.033-.464l2.97.428zm-.056-.798a1.894 1.894 0 00-.378-.703l-2.283 1.947a1.104 1.104 0 01-.22-.41l2.881-.834zm-.378-.703a1.896 1.896 0 00-.635-.485l-1.278 2.714a1.104 1.104 0 01-.37-.282l2.283-1.947zm-.635-.485a1.896 1.896 0 00-.779-.18l-.046 3a1.105 1.105 0 01-.453-.106l1.278-2.714z" fill="#fff" mask="url(#path-2-inside-1)"/></svg>