<svg width="31" height="19" fill="none" xmlns="http://www.w3.org/2000/svg"><path d="M19.399 2.015H11.14v14.841h8.258V2.016z" fill="#FF5F00"/><path d="M11.665 9.439a9.423 9.423 0 013.604-7.42 9.438 9.438 0 100 14.841 9.422 9.422 0 01-3.604-7.421z" fill="#EB001B"/><path d="M30.54 9.44a9.437 9.437 0 01-15.27 7.42 9.438 9.438 0 000-14.842A9.438 9.438 0 0130.54 9.44zm-.906 5.843v-.304h.123v-.06h-.307v.063h.124v.304l.06-.003zm.605 0v-.367h-.08l-.11.262-.11-.262h-.098v.367h.055v-.275l.102.239h.071l.102-.239v.278l.069-.003z" fill="#F79E1B"/></svg>