<svg width="57" height="34" fill="none" xmlns="http://www.w3.org/2000/svg"><path d="M39.59 33.197l.874-.022.861-.06.845-.105.84-.142.815-.182.805-.22.788-.257.77-.291.754-.33.73-.356.708-.396.691-.423.662-.455.64-.483.616-.511.588-.543.565-.566.53-.593.503-.615.474-.636.439-.665.411-.68.371-.703.343-.725.302-.741.268-.758.229-.774.188-.785.148-.807.109-.813.063-.828.022-.84-.022-.835-.063-.823-.109-.813-.148-.796-.188-.785-.229-.769-.268-.758-.303-.735-.342-.72-.37-.702-.412-.675-.44-.665-.473-.636-.502-.61-.531-.593-.565-.565-.588-.538-.617-.51-.639-.484-.662-.456-.69-.422-.708-.39-.731-.357-.753-.33-.771-.29-.788-.258-.805-.22-.816-.181-.839-.143-.845-.104-.861-.06-.874-.023-.867.022-.862.06-.845.105-.833.143-.816.181-.805.22-.782.258-.77.29-.749.33-.724.357-.708.39-.685.422-.662.456-.64.483-.61.51-.588.539-.56.565-.53.593-.502.61-.468.636-.44.665-.405.675-.377.703-.337.719-.302.736-.263.757-.228.769-.188.785-.149.796-.108.813-.063.823-.023.835.023.84.063.828.108.813.149.807.188.785.228.774.263.758.302.74.337.726.377.702.405.681.44.665.468.636.502.615.53.593.56.566.588.543.61.51.64.484.662.455.685.423.708.396.724.357.748.329.77.29.783.259.805.22.816.18.833.143.845.105.862.06.867.022z" fill="#9B9B9B"/><path d="M16.952 33.198l.868-.023.862-.06.845-.104.833-.143.816-.18.805-.22.782-.259.77-.29.748-.33.725-.357.708-.395.685-.423.662-.455.639-.484.61-.51.589-.543.56-.566.53-.593.502-.615.468-.637.44-.664.405-.681.377-.703.336-.724.303-.741.262-.758.229-.774.188-.785.149-.807.108-.813.063-.829.023-.84-.023-.834-.063-.824-.108-.812-.149-.796-.188-.785-.229-.77-.262-.757-.303-.735-.336-.72-.377-.702-.405-.675-.44-.665-.468-.637-.502-.61-.53-.592-.56-.566-.588-.538-.611-.51-.64-.483-.661-.456-.685-.423-.708-.39-.725-.356-.748-.33-.77-.29-.782-.259-.805-.22-.816-.18-.834-.143-.844-.104-.862-.06-.868-.023-.873.022-.862.06-.845.105-.839.143-.816.18-.805.22-.787.258-.771.291-.753.33-.73.357-.709.39-.69.422-.663.456-.639.483-.616.51-.588.538-.565.566-.531.593-.502.61-.474.636-.44.665-.41.675-.372.703-.342.719-.302.735-.269.758-.228.769-.188.785-.149.796-.108.812-.063.824-.023.834.023.84.063.83.108.812.149.807.188.785.228.774.269.758.302.74.342.725.372.703.41.681.44.664.474.637.502.615.53.593.566.566.588.543.616.51.64.484.662.455.69.423.708.395.73.357.754.33.77.29.788.258.805.22.816.181.84.143.844.104.862.06.873.023z" fill="#9B9B9B"/><path d="M20.23 16.394l-.08-.006-.08-.01-.075-.012-.074-.01-.069-.011-.073-.011-.075-.011-.08-.011-.08-.012-.09-.005-.103-.005-.109-.006h-.12l-.131.006-.149.01-.165.012-.114.016-.109.017-.097.032-.085.033-.08.039-.074.043-.058.055-.051.05-.034.06-.029.06-.011.066v.066l.017.071.023.071.046.072.056.07.115.105.137.082.16.072.17.06.183.054.189.061.188.066.183.071.171.093.16.115.142.137.12.17.092.209.057.247.023.295-.023.346-.04.257-.069.225-.091.209-.114.18-.131.16-.149.136-.16.121-.177.104-.182.082-.189.072-.194.054-.2.044-.194.033-.188.017-.188.01-.177.006h-.246l-.228-.005h-.2l-.188-.006-.171-.005-.154-.011-.137-.011-.132-.017-.12-.01-.108-.022-.108-.017-.098-.027-.097-.022-.091-.033-.091-.033-.097-.033.256-1.211.052.01.063.017.08.022.097.022.102.022.115.022.126.027.136.022.143.022.148.022.155.016.16.017.165.005.165.006h.166l.165-.006.166-.033.131-.044.103-.06.08-.077.057-.076.046-.088.028-.088.023-.082.011-.159-.051-.137-.097-.11-.143-.093-.17-.082-.2-.082-.224-.077-.222-.088-.228-.098-.217-.116-.2-.142-.183-.17-.143-.209-.102-.246-.052-.296.006-.351.029-.214.04-.203.057-.186.068-.176.091-.164.103-.143.12-.136.143-.121.166-.104.182-.088.206-.082.228-.06.257-.05.28-.038.308-.022.337-.006h.21l.195.006.177.005.16.006.142.01.132.012.113.01.103.012.098.01.08.017.074.011.068.01.057.012.052.005.05.011.046.006-.29 1.239z" fill="#383838"/><path d="M20.23 16.394l-.08-.006-.08-.01-.075-.012-.074-.01-.069-.011-.073-.011-.075-.011-.08-.011-.08-.012-.09-.005-.103-.005-.109-.006h-.12l-.131.006-.149.01-.165.012-.114.016-.109.017-.097.032-.085.033-.08.039-.074.043-.058.055-.051.05-.034.06-.029.06-.011.066v.066l.017.071.023.071.046.072.056.07.115.105.137.082.16.072.17.06.183.054.189.061.188.066.183.071.171.093.16.115.142.137.12.17.092.209.057.247.023.295-.023.346-.04.257-.069.225-.091.209-.114.18-.131.16-.149.136-.16.121-.177.104-.182.082-.189.072-.194.054-.2.044-.194.033-.188.017-.188.01-.177.006h-.246l-.228-.005h-.2l-.188-.006-.171-.005-.154-.011-.137-.011-.132-.017-.12-.01-.108-.022-.108-.017-.098-.027-.097-.022-.091-.033-.091-.033-.097-.033.256-1.211.052.01.063.017.08.022.097.022.102.022.115.022.126.027.136.022.143.022.148.022.155.016.16.017.165.005.165.006h.166l.165-.006.166-.033.131-.044.103-.06.08-.077.057-.076.046-.088.028-.088.023-.082.011-.159-.051-.137-.097-.11-.143-.093-.17-.082-.2-.082-.224-.077-.222-.088-.228-.098-.217-.116-.2-.142-.183-.17-.143-.209-.102-.246-.052-.296.006-.351.029-.214.04-.203.057-.186.068-.176.091-.164.103-.143.12-.136.143-.121.166-.104.182-.088.206-.082.228-.06.257-.05.28-.038.308-.022.337-.006h.21l.195.006.177.005.16.006.142.01.132.012.113.01.103.012.098.01.08.017.074.011.068.01.057.012.052.005.05.011.046.006-.29 1.239z" stroke="#383838" stroke-width=".216" stroke-miterlimit="2.613"/><path d="M21.582 13.799h1.581l-.234 1.327h.953l-.205 1.24-1.005-.027-.548 3.061-.005.11.028.093.057.071.074.06.103.04.115.032.125.022.137.01.125-.004.114-.011.104-.017.09-.022.075-.022.051-.016.035-.011.01-.005-.199 1.02-.04.027-.04.022-.04.022-.04.022-.04.017-.045.016-.052.017-.051.016-.057.017-.057.01-.069.011-.068.012-.074.01-.086.011-.091.011-.097.011h-.434l-.229-.016-.2-.022-.182-.033-.154-.038-.131-.05-.109-.055-.097-.066-.074-.07-.057-.078-.04-.093-.029-.093-.017-.104-.006-.115v-.122l.018-.125.017-.138 1.09-5.985z" fill="#383838"/><path d="M21.582 13.799h1.581l-.234 1.327h.953l-.205 1.24-1.005-.027-.548 3.061-.005.11.028.093.057.071.074.06.103.04.115.032.125.022.137.01.125-.004.114-.011.104-.017.09-.022.075-.022.051-.016.035-.011.01-.005-.199 1.02-.04.027-.04.022-.04.022-.04.022-.04.017-.045.016-.052.017-.051.016-.057.017-.057.01-.069.011-.068.012-.074.01-.086.011-.091.011-.097.011h-.434l-.229-.016-.2-.022-.182-.033-.154-.038-.131-.05-.109-.055-.097-.066-.074-.07-.057-.078-.04-.093-.029-.093-.017-.104-.006-.115v-.122l.018-.125.017-.138 1.09-5.985z" stroke="#383838" stroke-width=".216" stroke-miterlimit="2.613"/><path d="M25.143 18.435l-.017.093-.005.1.011.103.023.104.04.105.046.099.062.104.069.093.08.093.086.082.09.083.104.066.102.06.114.05.115.038.114.022.148.021.143.017.148.017.149.01.148.006h.154l.148-.005.155-.011.154-.022.154-.028.16-.033.154-.05.16-.06.165-.065.16-.088.166-.093-.229 1.349-.091.044-.091.044-.092.033-.085.033-.086.027-.091.027-.092.023-.097.016-.102.016-.114.011-.12.011-.132.011-.148.006h-.154l-.177.005h-.188l-.28-.005-.286-.028-.285-.038-.285-.066-.28-.082-.269-.105-.256-.136-.24-.16-.222-.186-.195-.225-.165-.252-.137-.291-.097-.324-.063-.367-.017-.406.029-.45.022-.175.035-.203.045-.214.063-.23.086-.236.103-.236.13-.242.16-.23.183-.22.223-.208.251-.186.285-.165.331-.137.371-.099.411-.066.463-.022.222.006.235.022.233.038.235.055.228.082.222.1.206.13.188.154.171.187.143.22.114.252.08.29.046.33.005.372-.04.417-.085.461-.029.334h-4.16l.262-1.08h2.5l.012-.137-.006-.132-.012-.12-.022-.11-.04-.104-.04-.094-.058-.082-.057-.077-.068-.066-.075-.055-.085-.049-.085-.044-.092-.033-.091-.021-.097-.017-.103-.011-.108.005-.103.017-.098.022-.096.033-.097.044-.086.05-.086.06-.074.065-.074.077-.068.082-.063.088-.051.093-.052.1-.04.109-.034.11-.023.115-.229 1.135z" fill="#383838"/><path d="M25.143 18.435l-.017.093-.005.1.011.103.023.104.04.105.046.099.062.104.069.093.08.093.086.082.09.083.104.066.102.06.114.05.115.038.114.022.148.021.143.017.148.017.149.01.148.006h.154l.148-.005.155-.011.154-.022.154-.028.16-.033.154-.05.16-.06.165-.065.16-.088.166-.093-.229 1.349-.091.044-.091.044-.092.033-.085.033-.086.027-.091.027-.092.023-.097.016-.102.016-.114.011-.12.011-.132.011-.148.006h-.154l-.177.005h-.188l-.28-.005-.286-.028-.285-.038-.285-.066-.28-.082-.269-.105-.256-.136-.24-.16-.222-.186-.195-.225-.165-.252-.137-.291-.097-.324-.063-.367-.017-.406.029-.45.022-.175.035-.203.045-.214.063-.23.086-.236.103-.236.13-.242.16-.23.183-.22.223-.208.251-.186.285-.165.331-.137.371-.099.411-.066.463-.022.222.006.235.022.233.038.235.055.228.082.222.1.206.13.188.154.171.187.143.22.114.252.08.29.046.33.005.372-.04.417-.085.461-.029.334h-4.16l.262-1.08h2.5l.012-.137-.006-.132-.012-.12-.022-.11-.04-.104-.04-.094-.058-.082-.057-.077-.068-.066-.075-.055-.085-.049-.085-.044-.092-.033-.091-.021-.097-.017-.103-.011-.108.005-.103.017-.098.022-.096.033-.097.044-.086.05-.086.06-.074.065-.074.077-.068.082-.063.088-.051.093-.052.1-.04.109-.034.11-.023.115-.229 1.135z" stroke="#383838" stroke-width=".216" stroke-miterlimit="2.613"/><path d="M38.756 15.457l-.074-.038-.074-.033-.08-.039-.085-.038-.086-.033-.097-.033-.097-.033-.103-.033-.108-.027-.109-.022-.12-.022-.12-.016-.13-.011-.132-.011h-.422l-.149.01-.154.017-.16.027-.16.044-.16.06-.16.078-.16.098-.153.12-.149.143-.142.176-.137.203-.126.241-.12.275-.108.307-.091.351-.035.197-.023.192-.011.192.006.187.017.186.04.176.051.165.063.164.086.149.102.142.12.126.137.115.154.099.177.082.194.072.217.049.074.017.086.016.102.011.115.011.125.01h.275l.142-.01.149-.017.148-.027.142-.038.143-.044.143-.06.131-.072.12-.088.114-.098-.256 1.464-.035.028-.034.032-.046.039-.05.033-.064.044-.08.038-.091.038-.103.033-.131.039-.149.027-.17.022-.2.022-.223.011-.257.006-.291-.006-.32-.016-.262-.028-.263-.054-.262-.083-.263-.11-.251-.131-.24-.165-.228-.192-.211-.22-.189-.246-.16-.274-.136-.307-.103-.335-.068-.368-.023-.39.011-.427.063-.455.045-.225.052-.22.057-.214.057-.203.063-.192.074-.192.074-.18.08-.17.086-.17.085-.16.097-.154.103-.142.103-.137.114-.132.114-.12.12-.116.131-.11.132-.104.136-.093.143-.088.154-.082.154-.071.16-.066.166-.06.177-.055.176-.044.183-.039.194-.033.194-.027.206-.022.205-.011.217-.005.183.005.177.01.17.017.172.022.16.022.154.033.149.028.136.032.132.034.114.032.108.033.092.033.08.028.068.022.052.022.034.01-.286 1.52z" fill="#383838"/><path d="M38.756 15.457l-.074-.038-.074-.033-.08-.039-.085-.038-.086-.033-.097-.033-.097-.033-.103-.033-.108-.027-.109-.022-.12-.022-.12-.016-.13-.011-.132-.011h-.422l-.149.01-.154.017-.16.027-.16.044-.16.06-.16.078-.16.098-.153.12-.149.143-.142.176-.137.203-.126.241-.12.275-.108.307-.091.351-.035.197-.023.192-.011.192.006.187.017.186.04.176.051.165.063.164.086.149.102.142.12.126.137.115.154.099.177.082.194.072.217.049.074.017.086.016.102.011.115.011.125.01h.275l.142-.01.149-.017.148-.027.142-.038.143-.044.143-.06.131-.072.12-.088.114-.098-.256 1.464-.035.028-.034.032-.046.039-.05.033-.064.044-.08.038-.091.038-.103.033-.131.039-.149.027-.17.022-.2.022-.223.011-.257.006-.291-.006-.32-.016-.262-.028-.263-.054-.262-.083-.263-.11-.251-.131-.24-.165-.228-.192-.211-.22-.189-.246-.16-.274-.136-.307-.103-.335-.068-.368-.023-.39.011-.427.063-.455.045-.225.052-.22.057-.214.057-.203.063-.192.074-.192.074-.18.08-.17.086-.17.085-.16.097-.154.103-.142.103-.137.114-.132.114-.12.12-.116.131-.11.132-.104.136-.093.143-.088.154-.082.154-.071.16-.066.166-.06.177-.055.176-.044.183-.039.194-.033.194-.027.206-.022.205-.011.217-.005.183.005.177.01.17.017.172.022.16.022.154.033.149.028.136.032.132.034.114.032.108.033.092.033.08.028.068.022.052.022.034.01-.286 1.52z" stroke="#383838" stroke-width=".216" stroke-miterlimit="2.613"/><path d="M52.809 21.004h-1.581l.114-.609v-.055l-.091.11-.097.099-.097.088-.103.077-.103.07-.102.061-.103.05-.109.049-.108.038-.109.028-.108.027-.114.017-.114.016-.109.011-.114.006h-.114l-.297-.022-.274-.06-.251-.094-.228-.126-.206-.16-.183-.186-.16-.203-.136-.23-.114-.247-.092-.258-.063-.269-.045-.28-.017-.28.005-.285.029-.28.052-.28.085-.323.103-.307.12-.28.142-.263.149-.247.17-.22.178-.197.188-.181.2-.16.211-.136.217-.121.217-.093.228-.077.228-.05.229-.033.234-.01.165.005.16.016.148.028.137.038.132.044.114.05.114.06.103.06.091.066.086.071.074.072.069.071.056.071.052.072.046.066.034.066.4-2.157h1.552l-1.29 7.176z" fill="#383838"/><path d="M52.809 21.004h-1.581l.114-.609v-.055l-.091.11-.097.099-.097.088-.103.077-.103.07-.102.061-.103.05-.109.049-.108.038-.109.028-.108.027-.114.017-.114.016-.109.011-.114.006h-.114l-.297-.022-.274-.06-.251-.094-.228-.126-.206-.16-.183-.186-.16-.203-.136-.23-.114-.247-.092-.258-.063-.269-.045-.28-.017-.28.005-.285.029-.28.052-.28.085-.323.103-.307.12-.28.142-.263.149-.247.17-.22.178-.197.188-.181.2-.16.211-.136.217-.121.217-.093.228-.077.228-.05.229-.033.234-.01.165.005.16.016.148.028.137.038.132.044.114.05.114.06.103.06.091.066.086.071.074.072.069.071.056.071.052.072.046.066.034.066.4-2.157h1.552l-1.29 7.176z" stroke="#383838" stroke-width=".216" stroke-miterlimit="2.613"/><path d="M50.224 19.674l.16-.011.148-.033.137-.038.131-.06.12-.066.114-.082.108-.093.098-.1.085-.109.08-.12.074-.126.063-.132.057-.137.046-.142.04-.148.028-.148.029-.154.017-.158v-.148l-.006-.154-.017-.142-.023-.137-.04-.131-.045-.126-.057-.11-.069-.104-.074-.088-.086-.076-.097-.066-.102-.044-.109-.027-.12-.011-.154.01-.142.023-.132.043-.131.055-.114.071-.114.088-.097.093-.098.104-.085.12-.08.127-.074.131-.063.142-.057.148-.046.148-.046.16-.034.158-.028.241.011.263.04.269.074.257.114.225.149.18.188.121.229.044z" fill="#9B9B9B"/><path d="M15.17 19.782L14.944 21h-1.439l.04-.225.029-.202.023-.154.022-.082-.08.088-.09.087-.11.082-.119.077-.137.077-.143.066-.148.066-.154.054-.166.05-.165.038-.166.033-.17.022-.167.01-.165.006-.16-.016-.154-.022-.2-.05-.183-.054-.16-.072-.142-.082-.125-.087-.115-.1-.09-.103-.081-.11-.069-.115-.056-.12-.046-.121-.034-.12-.023-.127-.017-.126-.012-.12v-.121l.017-.214.035-.203.057-.192.074-.186.091-.175.103-.16.12-.153.137-.137.143-.126.16-.115.165-.104.171-.088.183-.077.188-.06.194-.05.2-.032h.011l.029-.006.04-.005.063-.006.068-.01.08-.006.085-.011.098-.011.097-.011.097-.011.103-.006.09-.01.092-.006.085-.006.08-.005h.195l.137.005.125.006h.126l.103.006.08.005.056.006h.018l.011-.039.034-.099.029-.115.011-.104-.022-.12-.052-.11-.068-.099-.091-.082-.11-.071-.12-.05-.136-.033-.149-.01-.159-.006-.171-.006h-.177l-.183.006-.189.011-.182.016-.183.017-.177.022-.17.022-.166.027-.149.028-.137.027-.125.033-.103.033-.08.038-.063.033.406-1.321.125-.05.126-.043.136-.039.137-.027.137-.028.15-.021.147-.022.154-.011.16-.011.165-.006.172-.005h.548l.2.005.2.006.16.01.17.028.177.038.183.05.177.065.171.077.172.093.16.104.142.121.126.132.114.148.085.164.057.176.035.186v.208l-.035.22-.576 2.894z" fill="#383838"/><path d="M15.17 19.782L14.944 21h-1.439l.04-.225.029-.202.023-.154.022-.082-.08.088-.09.087-.11.082-.119.077-.137.077-.143.066-.148.066-.154.054-.166.05-.165.038-.166.033-.17.022-.167.01-.165.006-.16-.016-.154-.022-.2-.05-.183-.054-.16-.072-.142-.082-.125-.087-.115-.1-.09-.103-.081-.11-.069-.115-.056-.12-.046-.121-.034-.12-.023-.127-.017-.126-.012-.12v-.121l.017-.214.035-.203.057-.192.074-.186.091-.175.103-.16.12-.153.137-.137.143-.126.16-.115.165-.104.171-.088.183-.077.188-.06.194-.05.2-.032h.011l.029-.006.04-.005.063-.006.068-.01.08-.006.085-.011.098-.011.097-.011.097-.011.103-.006.09-.01.092-.006.085-.006.08-.005h.195l.137.005.125.006h.126l.103.006.08.005.056.006h.018l.011-.039.034-.099.029-.115.011-.104-.022-.12-.052-.11-.068-.099-.091-.082-.11-.071-.12-.05-.136-.033-.149-.01-.159-.006-.171-.006h-.177l-.183.006-.189.011-.182.016-.183.017-.177.022-.17.022-.166.027-.149.028-.137.027-.125.033-.103.033-.08.038-.063.033.406-1.321.125-.05.126-.043.136-.039.137-.027.137-.028.15-.021.147-.022.154-.011.16-.011.165-.006.172-.005h.548l.2.005.2.006.16.01.17.028.177.038.183.05.177.065.171.077.172.093.16.104.142.121.126.132.114.148.085.164.057.176.035.186v.208l-.035.22-.576 2.894z" stroke="#383838" stroke-width=".216" stroke-miterlimit="2.613"/><path d="M13.796 18.357l-.006-.027-.022-.028-.035-.016-.057-.011-.062-.011-.075-.006h-.171l-.091.006-.097.01-.092.012-.091.01-.086.012-.08.017-.068.016-.063.016-.04.011-.046.017-.062.021-.063.028-.074.033-.074.038-.08.038-.074.044-.08.055-.075.055-.068.065-.063.066-.057.072-.04.076-.034.088-.017.087-.006.186.029.148.057.11.074.082.085.055.098.033.09.016.092.006.171-.006.154-.016.15-.022.13-.033.114-.038.109-.05.097-.049.086-.06.074-.055.068-.066.057-.06.046-.066.04-.065.034-.066.029-.06.017-.06.046-.16.04-.18.034-.176.028-.142z" fill="#9B9B9B"/><path d="M3.162 21.002H1.609L2.905 13.8h2.7l.257 4.274L7.728 13.8h2.82l-1.324 7.203H7.67l.982-5.382H8.59l-2.323 5.382H4.515l-.012-.225-.04-.598-.05-.85-.058-.977-.057-.982-.052-.861-.04-.626-.01-.263H4.11l-.948 5.382z" fill="#383838"/><path d="M3.162 21.002H1.609L2.905 13.8h2.7l.257 4.274L7.728 13.8h2.82l-1.324 7.203H7.67l.982-5.382H8.59l-2.323 5.382H4.515l-.012-.225-.04-.598-.05-.85-.058-.977-.057-.982-.052-.861-.04-.626-.01-.263H4.11l-.948 5.382z" stroke="#383838" stroke-width=".216" stroke-miterlimit="2.613"/><path d="M43.5 19.782L43.266 21h-1.433l.011-.225.006-.197v-.148l.011-.066-.074.082-.085.082-.103.078-.114.076-.12.071-.137.066-.143.066-.142.055-.155.044-.16.043-.16.028-.16.022-.165.01-.16.006-.154-.016-.154-.022-.205-.05-.183-.054-.16-.072-.148-.082-.126-.087-.108-.1-.092-.103-.08-.11-.068-.115-.051-.12-.046-.121-.029-.12-.022-.127-.017-.126-.012-.12v-.121l.012-.214.034-.203.051-.192.074-.186.086-.175.109-.16.12-.153.13-.137.15-.126.153-.115.166-.104.177-.088.177-.077.188-.06.188-.05.194-.032h.012l.028-.006.04-.005.057-.006.074-.01.08-.006.086-.011.091-.011.097-.011.103-.011.097-.006.097-.01.092-.006.08-.006.08-.005h.199l.137.005.131.006h.126l.109.006.09.005.052.006h.023l.011-.039.017-.099.018-.115.011-.104-.023-.12-.045-.11-.075-.099-.085-.082-.103-.071-.12-.05-.126-.033-.137-.01-.16-.006-.17-.006h-.178l-.182.006-.188.011-.183.016-.183.017-.177.022-.171.022-.165.027-.149.028-.137.027-.126.033-.102.033-.08.038-.063.033.4-1.321.125-.05.132-.043.13-.039.138-.027.143-.028.142-.021.148-.022.155-.011.16-.011.165-.006.166-.005h.536l.194.005.194.006.16.01.171.028.177.038.183.05.177.065.177.077.17.093.16.104.144.121.13.132.115.148.086.164.063.176.04.186v.208l-.03.22-.598 2.894z" fill="#383838"/><path d="M43.266 21.046l.034-.033.234-1.217-.068-.01-.235 1.216.035-.033v.077l.028-.005.006-.028-.034.033z" fill="#383838"/><path d="M41.798 21.007l.034.039h1.433v-.078h-1.433l.034.039h-.068l-.006.039h.04l-.034-.04z" fill="#383838"/><path d="M41.89 20.395l-.051-.044-.023.088-.006.148v.197l-.011.225h.068l.012-.225.011-.197-.006-.148v-.044l-.05-.044.056.044z" fill="#383838"/><path d="M39.67 21.096l.159.022.154.017.16-.006.166-.01.165-.023.16-.027.16-.044.16-.043.142-.055.149-.066.137-.066.12-.077.12-.076.102-.077.091-.088.075-.082-.057-.044-.075.082-.08.077-.102.077-.108.077-.12.065-.138.066-.137.066-.142.055-.149.044-.16.043-.16.028-.153.022-.166.01-.16.006-.154-.016-.148-.022-.012.066zm-1.382-1.663l.005.12.012.12.017.132.023.126.028.12.046.127.051.126.074.115.08.115.092.104.114.104.131.088.149.088.165.07.189.056.205.049.012-.066-.206-.05-.177-.054-.154-.071-.149-.077-.12-.087-.102-.094-.092-.104-.08-.104-.062-.115-.052-.115-.045-.115-.029-.12-.023-.127-.017-.12-.011-.12.005-.121h-.08zm2.049-2.108l-.2.033-.194.05-.188.06-.183.076-.177.088-.171.11-.154.115-.149.131-.137.137-.12.154-.114.164-.085.18-.075.187-.05.197-.035.208-.017.214h.08l.005-.213.035-.198.051-.186.074-.186.086-.17.102-.153.12-.154.126-.137.148-.12.154-.115.16-.099.177-.088.171-.076.188-.06.183-.05.189-.033v-.066zm1.177-.115h-.063l-.08.01-.08.006-.091.006-.097.01-.098.006-.102.011-.097.01-.091.012-.086.01-.08.006-.074.012-.058.005-.045.005-.023.006h-.011v.066h.011l.034-.006.034-.005.058-.005.074-.012.08-.005.086-.011.09-.011.098-.011.102-.011.098-.005.097-.012.09-.005.08-.006h.145v-.076z" fill="#383838"/><path d="M42.283 17.27l.035-.028h-.023l-.052-.005-.091-.005-.109-.011h-.256l-.137-.011h-.137v.076h.274l.13.012h.235l.091.005.052.006h.023l.034-.028-.034.028.028.005.006-.033-.069-.011z" fill="#383838"/><path d="M42.34 16.919h-.005l-.005.104-.018.11-.017.099-.011.038.068.011.012-.038.017-.1.017-.12.017-.104h-.075zm-.678-.544v.006l.13.005.12.034.115.049.097.066.08.077.068.093.046.099.023.115h.068l-.023-.126-.045-.12-.08-.105-.091-.088-.109-.077-.125-.05-.132-.033-.142-.016v.071zm-2.45.265l.057.034.057-.028.075-.039.097-.033.125-.033.137-.027.149-.028.165-.028.166-.022.177-.022.182-.016.183-.017.188-.011h.531l.16.005v-.066l-.16-.005-.17-.011h-.178l-.183.01-.188.012-.183.016-.182.017-.177.022-.177.022-.166.028-.148.027-.137.028-.126.033-.108.033-.086.039-.068.038.057.033-.069-.01z" fill="#383838"/><path d="M39.635 15.288l-.023.027-.4 1.32.069.011.4-1.32-.023.027-.023-.065-.017.005-.006.022.023-.027z" fill="#383838"/><path d="M42.175 15.034l-.194-.01-.194-.006h-.536l-.166.01-.166.006-.16.011-.154.011-.154.022-.142.022-.143.028-.137.027-.137.039-.131.043-.126.05.023.066.126-.05.13-.044.126-.038.137-.027.143-.028.143-.022.142-.022.155-.01.16-.012.165-.005h.702l.194.005h.194v-.066z" fill="#383838"/><path d="M44.132 16.891l.029-.224v-.208l-.04-.192-.063-.18-.09-.17-.116-.154-.136-.136-.143-.121-.166-.104-.17-.099-.183-.076-.177-.066-.189-.05-.176-.038-.178-.027-.16-.011v.066l.16.01.166.028.177.038.177.05.177.065.171.077.171.088.154.104.143.12.126.126.114.142.08.16.062.169.04.18v.209l-.028.213.068.011zm-.598 2.898l.6-2.893-.07-.01-.598 2.892.068.01z" fill="#383838"/><path d="M42.117 18.355l-.01-.032-.023-.028-.04-.017-.057-.016-.063-.006-.074-.005h-.086l-.086.005-.091.011-.091.012-.092.01-.085.011-.086.017-.074.011-.074.016-.057.011-.04.006-.046.016-.057.017-.063.021-.074.033-.069.033-.08.039-.074.049-.074.05-.074.06-.063.06-.063.071-.051.077-.04.082-.034.088-.017.093-.006.186.028.148.046.11.069.081.085.055.097.033.097.017.097.005.172-.005.16-.017.148-.027.131-.038.126-.044.108-.05.103-.055.091-.065.08-.06.069-.072.062-.066.052-.07.04-.066.028-.066.023-.066.017-.06.023-.154.029-.158.022-.154.011-.137z" fill="#9B9B9B"/><path d="M43.928 21.002h1.61l.576-3.12.023-.121.034-.121.034-.12.046-.121.057-.12.068-.116.075-.11.091-.104.103-.093.114-.088.13-.082.15-.066.165-.055.183-.044.2-.033.222-.01h.143l.256-1.41-.16.01-.153.017-.143.027-.137.039-.126.044-.12.055-.114.06-.108.066-.103.077-.097.076-.091.088-.092.088-.085.093-.086.104-.085.099-.08.11.171-.993h-1.604l-1.067 5.874z" fill="#383838"/><path d="M43.928 21.002h1.61l.576-3.12.023-.121.034-.121.034-.12.046-.121.057-.12.068-.116.075-.11.091-.104.103-.093.114-.088.13-.082.15-.066.165-.055.183-.044.2-.033.222-.01h.143l.256-1.41-.16.01-.153.017-.143.027-.137.039-.126.044-.12.055-.114.06-.108.066-.103.077-.097.076-.091.088-.092.088-.085.093-.086.104-.085.099-.08.11.171-.993h-1.604l-1.067 5.874z" stroke="#383838" stroke-width=".216" stroke-miterlimit="2.613"/><path d="M28.813 21.002h1.637l.548-3.12.022-.121.029-.116.029-.115.04-.11.045-.109.057-.104.069-.1.08-.092.091-.083.103-.082.125-.066.137-.06.16-.05.177-.043.194-.028.223-.016h.017l.023.005.028.006h.029l.028.005.023.006.017.005h.006l.006-.022.017-.065.023-.099.028-.12.04-.143.04-.154.051-.154.052-.153.045-.104.058-.105.056-.104.057-.093.052-.082.04-.066.029-.039.01-.016h-.005l-.023-.005-.028-.006-.04-.005h-.04l-.046-.006-.04-.005h-.04l-.177.01-.16.017-.148.027-.137.033-.131.044-.12.055-.109.055-.102.066-.097.071-.092.082-.085.082-.086.094-.085.093-.08.104-.086.11-.085.11.205-.993H29.88l-1.067 5.874z" fill="#383838"/><path d="M28.813 21.002h1.637l.548-3.12.022-.121.029-.116.029-.115.04-.11.045-.109.057-.104.069-.1.08-.092.091-.083.103-.082.125-.066.137-.06.16-.05.177-.043.194-.028.223-.016h.017l.023.005.028.006h.029l.028.005.023.006.017.005h.006l.006-.022.017-.065.023-.099.028-.12.04-.143.04-.154.051-.154.052-.153.045-.104.058-.105.056-.104.057-.093.052-.082.04-.066.029-.039.01-.016h-.005l-.023-.005-.028-.006-.04-.005h-.04l-.046-.006-.04-.005h-.04l-.177.01-.16.017-.148.027-.137.033-.131.044-.12.055-.109.055-.102.066-.097.071-.092.082-.085.082-.086.094-.085.093-.08.104-.086.11-.085.11.205-.993H29.88l-1.067 5.874z" stroke="#383838" stroke-width=".216" stroke-miterlimit="2.613"/></svg>