<svg width="59" height="19" fill="none" xmlns="http://www.w3.org/2000/svg"><path d="M25.33 18.606h-4.726L23.56.331h4.725l-2.956 18.275zM42.459.778C41.527.408 40.049 0 38.22 0c-4.666 0-7.952 2.488-7.972 6.046-.04 2.625 2.352 4.083 4.141 4.958 1.828.895 2.45 1.478 2.45 2.275-.019 1.225-1.478 1.79-2.838 1.79-1.887 0-2.898-.292-4.434-.973l-.622-.292-.661 4.102c1.108.505 3.15.953 5.27.973 4.958 0 8.186-2.45 8.224-6.241.02-2.08-1.244-3.675-3.966-4.977-1.653-.837-2.665-1.4-2.665-2.256.02-.778.856-1.574 2.722-1.574 1.536-.04 2.665.33 3.52.7l.427.193.643-3.946zm6.281 11.354c.39-1.05 1.887-5.113 1.887-5.113-.02.039.388-1.07.622-1.75l.33 1.575s.895 4.374 1.089 5.288H48.74zM54.573.33h-3.655c-1.127 0-1.983.33-2.47 1.516l-7.018 16.76h4.959l.991-2.742h6.067c.136.642.564 2.742.564 2.742h4.376L54.572.331zm-37.915 0L12.03 12.794l-.505-2.528c-.856-2.916-3.54-6.084-6.534-7.66l4.24 15.982h4.996L21.655.33h-4.997z" fill="#9B9B9B"/><path d="M7.732.33H.129L.051.7c5.93 1.517 9.859 5.172 11.472 9.566L9.871 1.867C9.599.7 8.762.369 7.73.331z" fill="#9B9B9B"/></svg>