<svg width="34" height="34" fill="none" xmlns="http://www.w3.org/2000/svg"><path d="M23.97 13.047a.35.35 0 00-.42-.51 19.073 19.073 0 00-3.537 1.759 19.855 19.855 0 00-1.28.876c.45-1.3.545-2.188.418-2.857-.135-.71-.511-1.123-.83-1.466-.4-.44-.655-.797-.717-1.294-.063-.512.072-1.235.63-2.404a.35.35 0 00-.49-.454c-2.131 1.233-3.538 2.801-4.078 4.694h0c-.496 1.746-.188 3.405.176 4.516-1.227-1.993-2.825-2.99-3.68-3.384a.35.35 0 00-.484.41c.388 1.402.43 2.464.316 3.337-.114.876-.388 1.578-.666 2.28-.339.827-.678 1.686-.678 2.788 0 2.063 1.289 3.289 2.743 3.999 1.446.705 3.11.935 4.031 1.012a.35.35 0 00.312-.555c-.39-.536-.884-1.403-.98-2.497-.092-1.063.188-2.38 1.384-3.861.371 2.008.728 3.105 1.022 3.712.3.616.567.794.782.838a.347.347 0 00.071.008.598.598 0 00.35-.122c.085-.062.16-.142.225-.223.13-.164.255-.381.369-.618.204-.423.395-.954.532-1.47a11.785 11.785 0 01.102 1.588c-.003.477-.04.982-.139 1.446-.099.468-.256.872-.483 1.166a.35.35 0 00.304.563c1.463-.115 2.97-.448 4.12-1.21 1.173-.777 1.955-1.987 1.955-3.776 0-1.036-.606-1.744-1.132-2.358l-.064-.075h0l-.007-.008c-.586-.647-1.114-1.25-1.274-2.099-.16-.84.032-1.996 1.097-3.751zm-7.783 6.292v-.002.002z" fill="#E44937" stroke="#282828" stroke-width=".7" stroke-linejoin="round"/><path d="M16.983 0C7.63 0 0 7.63 0 16.983c0 9.388 7.63 16.984 16.983 16.984 9.388 0 16.984-7.63 16.984-16.984C34 7.63 26.37 0 16.983 0zm0 33.17C8.093 33.17.83 25.907.83 16.984.83 8.06 8.094.83 16.983.83c8.89 0 16.188 7.265 16.188 16.154 0 8.89-7.265 16.188-16.188 16.188z" fill="#282828"/></svg>