<svg width="30" height="35" fill="none" xmlns="http://www.w3.org/2000/svg"><path d="M19.408 21.341h-8.78a.421.421 0 00-.422.41v11.951c0 .24.21.41.421.41h8.781a.421.421 0 00.421-.41v-11.95c0-.206-.21-.41-.421-.41zm-.913 11.952H11.47a.421.421 0 01-.421-.41c0-.205.21-.41.421-.41h7.025c.246 0 .421.205.421.41s-.175.41-.421.41zm0-10.244H11.47a.421.421 0 01-.421-.41c0-.205.21-.41.421-.41h7.025c.246 0 .421.205.421.41s-.175.41-.421.41z" fill="#E44937"/><path d="M28.543 22.195h-7.836v-.41c0-.717-.597-1.297-1.334-1.297h-2.178v-2.834c4.074-.956 7.024-4.542 7.024-8.674 0-4.95-4.144-8.98-9.237-8.98C9.925 0 5.78 4.03 5.78 8.946c0 4.132 2.95 7.717 7.025 8.673v2.869h-2.178c-.737 0-1.334.58-1.334 1.297v.41H.42c-.21 0-.421.205-.421.41v10.244c0 .239.21.41.421.41h8.872v.41c0 .716.597 1.297 1.334 1.297h8.78c.738 0 1.335-.58 1.335-1.298v-.41h7.872a.421.421 0 00.421-.41V22.606a.521.521 0 00-.492-.41zM9.293 32.44H1v-9.39H.512h8.78v9.39zM6.659 8.946c0-4.473 3.758-8.126 8.359-8.126 4.565.034 8.323 3.687 8.323 8.126 0 3.859-2.81 7.205-6.673 7.956-.772.171-1.686.205-2.528.137a5.657 5.657 0 01-.808-.137c-3.864-.75-6.673-4.097-6.673-7.956zm9.658 8.878v2.664h-2.634v-2.664c.386.069.843.069 1.264.069h.106c.421.034.878 0 1.264-.069zm3.512 15.913c0 .239-.21.41-.421.41h-8.78a.421.421 0 01-.422-.41V21.785c0-.239.21-.41.421-.41h8.78c.247 0 .422.206.422.41v11.952zm8.293-1.298h-7.38v-9.39h7.38v9.39z" fill="#282828"/><path d="M22.463 8.946c0-3.995-3.336-7.239-7.48-7.239-4.11 0-7.446 3.244-7.446 7.24 0 3.994 3.336 7.238 7.446 7.238 4.144.035 7.48-3.21 7.48-7.239zm-14.048 0c0-3.517 2.95-6.42 6.603-6.42 3.617.035 6.567 2.903 6.567 6.42s-2.95 6.42-6.603 6.42c-3.617 0-6.567-2.868-6.567-6.42z" fill="#282828"/><path d="M18.495 12.805c.105 0 .21-.034.316-.137a.424.424 0 000-.614l-3.512-3.415a.454.454 0 00-.633 0 .424.424 0 000 .615l3.513 3.414c.105.103.21.137.316.137zm0 9.39H11.47a.421.421 0 00-.421.41c0 .205.21.41.421.41h7.025a.421.421 0 00.421-.41.421.421 0 00-.421-.41zm0 10.244H11.47a.421.421 0 00-.421.41c0 .205.21.41.421.41h7.025a.421.421 0 00.421-.41.421.421 0 00-.421-.41z" fill="#282828"/></svg>