<svg width="32" height="32" fill="none" xmlns="http://www.w3.org/2000/svg"><path d="M30.44 2.342H1.56v.78h28.878v-.78z" fill="#fff"/><path d="M21.854 20.667c0-.468-.375-.812-.78-1.217-.969-.906-1.655-1.842-.469-3.684-1.842.624-3.122 1.467-3.153 1.498-.156.094-.344.094-.469-.03-.124-.126-.187-.282-.093-.47.687-1.56.28-1.904-.188-2.31-.561-.53-.967-1.03-.405-2.279-1.312.719-2.155 1.593-2.436 2.592-.312 1.061.032 2.091.281 2.653.125.188.22.375.313.562a.364.364 0 01-.156.5c-.188.094-.406.062-.531-.094-.031-.031-.156-.25-.344-.593-.749-1.155-1.779-1.78-2.466-2.092.437 1.624 0 2.56-.406 3.403-.25.531-.468.968-.468 1.561 0 1.967 2.779 2.529 4.308 2.685-.25-.375-.5-.874-.562-1.498-.062-.937.344-1.842 1.218-2.716.094-.094.25-.157.374-.094.125.031.25.156.281.28.531 2.436 1 2.56 1 2.56.156 0 .53-.624.718-1.342.062-.187.218-.28.405-.28a.37.37 0 01.375.312c.031.187.312 1.717-.218 2.747 2.029-.156 3.87-.812 3.87-2.654z" fill="#E44937"/><path d="M1.561 4.683v3.122h-.375a.38.38 0 00-.374.374V9.74a.38.38 0 00.374.375h1.187v14.86h-.437a.403.403 0 00-.375.375v4.308H.375a.403.403 0 00-.375.375v1.561a.38.38 0 00.375.375h31.22a.38.38 0 00.374-.375v-1.56a.38.38 0 00-.375-.375h-1.186V25.35a.38.38 0 00-.375-.374h-.375v-14.83h1.187a.38.38 0 00.375-.374V8.21a.38.38 0 00-.375-.375h-.375V4.683H1.561zm.78 21.073h3.903v3.902H2.34v-3.902zm.78-.78v-14.83h2.342v14.83H3.122zm28.098 5.463v.78H.78v-.78h30.44zm-1.56-4.683v3.902h-3.903v-3.902h3.902zm-3.122-.78v-14.83h2.341v14.83h-2.341zm-.78-1.561h-4.902c1.467-.75 1.78-1.905 1.78-2.748 0-.811-.532-1.342-1.031-1.78-.843-.78-1.499-1.404.312-3.59a.424.424 0 00.031-.468c-.093-.156-.25-.218-.437-.156-1.498.375-2.778.968-3.559 1.374.25-1.155-.187-1.717-.718-2.186-.468-.405-.78-.686.344-2.341.093-.156.093-.343-.032-.468a.386.386 0 00-.437-.125c-2.216.874-3.559 2.091-3.996 3.621a4.235 4.235 0 00-.156 1.499c-1.186-1.03-2.435-1.374-2.497-1.374-.157-.031-.281 0-.375.125-.094.125-.125.25-.063.406.718 1.81.313 2.685-.124 3.59-.281.562-.531 1.124-.531 1.904 0 1.405.936 2.217 2.06 2.748H6.244v-13.3h19.512v13.269zm-7.494-2.81a.37.37 0 00-.374-.312.481.481 0 00-.406.28c-.187.719-.562 1.312-.718 1.343 0 0-.468-.125-1-2.56a.37.37 0 00-.28-.28.41.41 0 00-.375.093c-.874.874-1.28 1.78-1.217 2.716.03.624.28 1.124.562 1.498-1.499-.156-4.309-.686-4.309-2.684 0-.594.219-1.03.469-1.562.405-.842.843-1.779.405-3.402a6.03 6.03 0 012.467 2.091c.156.344.312.562.343.593.125.157.344.219.531.094a.364.364 0 00.156-.5c-.094-.187-.218-.374-.312-.561-.281-.594-.593-1.593-.281-2.654.312-1.03 1.124-1.904 2.435-2.591-.562 1.249-.156 1.748.406 2.279.468.406.843.78.187 2.31a.436.436 0 00.094.468c.125.125.312.125.468.032 0 0 1.311-.875 3.153-1.499-1.186 1.873-.5 2.779.469 3.684.405.406.78.75.78 1.217 0 1.811-1.842 2.467-3.809 2.654.469-.999.188-2.56.156-2.747zm-.686 1.623c-.032.344-.125.687-.313.906-.156.187-.343.28-.624.28h-1.093c-.187-.187-.811-.749-.874-1.592-.031-.5.125-1.03.5-1.56.437 1.654.936 2.403 1.56 2.434.313 0 .594-.187.844-.468zm8.18 1.967v.78h-.376a.38.38 0 00-.374.375v1.186H7.024V25.35a.38.38 0 00-.374-.374h-.406v-.78h19.512zm-.781 3.122v2.341H7.024v-2.341h17.952zm5.463-17.951H1.561v-.78h28.878v.78zm-.78-3.903v2.342H2.34V5.463h27.317z" fill="#282828"/></svg>