<svg width="30" height="31" fill="none" xmlns="http://www.w3.org/2000/svg"><path d="M29.268 27.375H21.22v.732h8.049v-.732zM17.561 1.034H3.66v.732h13.9v-.732zm-1.317 1.492H4.946C4.366 7.17 3.5 14.5 2.956 22.253h15.278c-1.283-12.946-1.76-17.57-1.99-19.727zm13.024 22.069H21.22v.585h8.049v-.585z" fill="#E44937"/><path d="M29.62 23.865h-8.488c-.176-.908-.937-1.61-1.873-1.61h-.264l-1.99-19.756h.907a.356.356 0 00.351-.351V.684a.356.356 0 00-.35-.351H3.277c-.176-.03-.351.146-.351.322v1.463c0 .205.175.352.351.352h.907l-1.96 19.785H1.96A1.961 1.961 0 000 24.215v5.708c0 .205.176.351.351.351H20.84a.356.356 0 00.351-.35V28.81h8.43a.356.356 0 00.35-.351v-1.464a.356.356 0 00-.35-.35h-8.4v-.733h8.429a.356.356 0 00.351-.35v-1.318a.369.369 0 00-.38-.38zM3.659 1.767v-.732H17.56v.732H3.659zm1.287.732h11.327c.224 2.097.679 6.73 1.99 19.756H2.956C3.5 17 4.5 7.5 4.946 2.499zm15.542 27.073H.732v-5.356c0-.673.556-1.23 1.229-1.23h17.298c.673 0 1.229.557 1.229 1.23v5.356zm8.78-2.195v.732H21.22v-.732h8.05zm0-2.195H21.22v-.586h8.05v.586z" fill="#282828"/></svg>