<svg width="36" height="36" fill="none" xmlns="http://www.w3.org/2000/svg"><path d="M14.956 27.333a1.298 1.298 0 100-2.595 1.298 1.298 0 000 2.595zm6.385 2.527h-.853v.853h.853v-.854zm-6.829 0h-.853v.853h.853v-.854z" fill="#E44937"/><path d="M17.825.154c-.204-.205-.444-.205-.648 0L.103 20.642a.439.439 0 00.069.614c.068.068.17.102.273.102.137 0 .239-.068.341-.136l2.664-3.176v16.561c0 .24.205.41.41.41h27.317c.239 0 .41-.205.41-.41V17.978l2.663 3.176c.068.102.205.136.341.136a.388.388 0 00.273-.102c.171-.137.205-.41.069-.615L17.825.153zm-3.312 33.975h-.853v-2.56h.853v2.56zm-2.56-5.122v-16.22H23.05v16.22H11.952zm2.56 1.708h-.853v-.854h.853v.854zm5.122 3.414h-4.268v-4.268h4.268v4.268zm1.707 0h-.853v-2.56h.854v2.56zm0-3.414h-.853v-.854h.854v.854zm9.39 3.414h-8.536v-4.268h1.298c.239 0 .41-.205.41-.41V12.378a.415.415 0 00-.41-.41H11.543a.415.415 0 00-.41.41v17.073c0 .24.205.41.41.41h1.297v4.268H4.303V16.954L17.518 1.076l13.215 15.878v17.175z" fill="#282828"/><path d="M16.664 13.64h-3.415a.415.415 0 00-.41.41v5.122c0 .239.205.41.41.41h3.415c.239 0 .41-.206.41-.41V14.05a.44.44 0 00-.41-.41zm-.444 5.122h-2.561v-4.268h2.56v4.268zm-1.264 5.122c-1.16 0-2.117.956-2.117 2.117 0 1.16.957 2.117 2.117 2.117A2.128 2.128 0 0017.073 26a2.128 2.128 0 00-2.117-2.117zm0 3.414a1.297 1.297 0 111.298-1.297c0 .717-.615 1.297-1.298 1.297zm6.829-3.414h-3.414a.415.415 0 00-.41.41c0 .204.205.41.41.41h3.414c.24 0 .41-.206.41-.41a.44.44 0 00-.41-.41zm0 1.707h-3.414a.415.415 0 00-.41.41c0 .205.205.41.41.41h3.414c.24 0 .41-.205.41-.41a.44.44 0 00-.41-.41zm0 1.708h-3.414a.415.415 0 00-.41.41c0 .204.205.409.41.409h3.414c.24 0 .41-.205.41-.41a.44.44 0 00-.41-.41z" fill="#282828"/></svg>