<svg width="21" height="34" fill="none" xmlns="http://www.w3.org/2000/svg"><path d="M19.757 29.854c.235 0 .403-.2.403-.399a.406.406 0 00-.403-.398.406.406 0 00-.403.398c-.034.2.168.399.403.399z" fill="#282828"/><path d="M2.52 9.951h4.2V4.146h-4.2v5.805zm1.243-3.317h1.68c.235 0 .403.2.403.398 0 .2-.201.398-.403.398h-1.68a.406.406 0 01-.403-.398c0-.199.202-.398.403-.398zm0 1.659h1.68c.235 0 .403.199.403.398s-.201.398-.403.398h-1.68a.406.406 0 01-.403-.398c0-.2.202-.398.403-.398z" fill="#E44937"/><path d="M15.12 25.707h-.84v.83h.84v-.83z" fill="#282828"/><path d="M3.36 31.91v-4.544h-.84v5.805h15.523a.406.406 0 00.403-.398.406.406 0 00-.403-.399H3.763c-.201-.033-.403-.232-.403-.464z" fill="#D8D8D8"/><path d="M19.757 32.341a.406.406 0 00-.404.398c0 .233.202.398.404.398a.406.406 0 00.403-.398c0-.199-.202-.398-.403-.398zM3.36 25.707h-.84v.83h.84v-.83z" fill="#282828"/><path d="M20.16 28.197h-4.2v-2.488h1.277a.406.406 0 00.403-.398V.433a.406.406 0 00-.403-.398H.437A.39.39 0 000 .4v24.878c0 .232.202.398.403.398H1.68v7.894c0 .233.202.398.403.398H20.16c.47 0 .84-.365.84-.829v-.83a.826.826 0 00-.84-.828H4.2v-5.772h9.24v4.577c0 .233.202.398.403.398h6.317c.47 0 .84-.364.84-.829v-.83a.827.827 0 00-.84-.828zm-.403 4.146c.235 0 .403.199.403.398a.406.406 0 01-.403.398.406.406 0 01-.403-.398c-.034-.199.168-.398.403-.398zm-1.277.431a.406.406 0 01-.403.398H2.52v-5.805h.84v4.578c0 .232.202.398.403.398h14.28c.235 0 .437.199.437.431zM2.52 26.538v-.83h.84v.83h-.84zM.84 24.88V.832H16.8V24.88H.84zm14.28.83v.83h-.84v-.83h.84zm2.957 4.146H14.28v-2.488h.84v1.26c0 .233.202.399.403.399h2.52c.235 0 .403.199.403.398a.388.388 0 01-.37.431zm1.68 0a.406.406 0 01-.403-.398c0-.232.201-.398.403-.398.235 0 .403.2.403.398 0 .2-.202.398-.403.398z" fill="#282828"/><path d="M7.123 3.317h-5.04c-.201 0-.403.199-.403.398v6.634c0 .232.202.398.403.398h5.04a.406.406 0 00.404-.398V3.715c.033-.2-.168-.398-.404-.398zM6.72 9.95h-4.2V4.146h4.2v5.805z" fill="#282828"/><path d="M3.763 7.463h1.68a.406.406 0 00.403-.398c0-.199-.168-.431-.403-.431h-1.68a.406.406 0 00-.403.398c0 .2.201.431.403.431zm0 1.659h1.68a.406.406 0 00.403-.398c0-.2-.168-.431-.403-.431h-1.68a.406.406 0 00-.403.398c0 .199.201.431.403.431z" fill="#E44937"/><path d="M4.637 18.244c-1.646 0-2.957 1.294-2.957 2.919s1.31 2.919 2.957 2.919c1.646 0 2.957-1.294 2.957-2.92 0-1.624-1.344-2.918-2.957-2.918zm0 4.976c-1.142 0-2.083-.93-2.083-2.057 0-1.128.94-2.057 2.083-2.057 1.142 0 2.083.93 2.083 2.057 0 1.128-.94 2.056-2.083 2.056z" fill="#282828"/><path d="M4.637 19.902c-.706 0-1.277.564-1.277 1.26 0 .697.571 1.261 1.277 1.261.705 0 1.276-.564 1.276-1.26 0-.697-.604-1.26-1.276-1.26zm0 1.659a.406.406 0 01-.404-.398c0-.2.202-.398.404-.398.201 0 .403.199.403.398s-.202.398-.403.398z" fill="#282828"/></svg>