<svg width="35" height="35" fill="none" xmlns="http://www.w3.org/2000/svg"><path d="M29.025 21.342h-.854v.853h.854v-.853zm0-3.415h-.854v.853h.854v-.853zM9.39 32.44h16.22V12.804H9.39v19.634zm2.97-5.123h10.245c.239 0 .41.205.41.41a.44.44 0 01-.41.41H12.36a.415.415 0 01-.41-.41.44.44 0 01.41-.41zm0 1.707h10.245c.239 0 .41.205.41.41a.44.44 0 01-.41.41H12.36a.415.415 0 01-.41-.41.44.44 0 01.41-.41zm0 1.708h10.245c.239 0 .41.205.41.41a.44.44 0 01-.41.41H12.36a.415.415 0 01-.41-.41.44.44 0 01.41-.41zM6.83 12.805h-.854v.854h.853v-.854zm9.39-10.688c0-.239.204-.41.41-.41.238 0 .443.205.443.41v3.005h.854V2.117c0-.239.205-.41.41-.41.239 0 .443.205.443.41v3.005h.854V.854h-4.268v4.268h.853V2.117z" fill="#E44937"/><path d="M12.361 11.098a2.128 2.128 0 002.117-2.117c0-1.161-.922-2.152-2.117-2.152a2.128 2.128 0 00-2.117 2.117c0 1.161.956 2.152 2.117 2.152zm0-3.415c.717 0 1.298.58 1.298 1.298 0 .717-.58 1.263-1.298 1.263-.717 0-1.297-.58-1.297-1.298 0-.717.614-1.263 1.297-1.263zm-.001 23.902h10.245c.239 0 .41-.204.41-.41 0-.204-.171-.443-.41-.443H12.36a.415.415 0 00-.41.41c0 .204.205.443.41.443zm0-1.707h10.245c.239 0 .41-.205.41-.41s-.171-.444-.41-.444H12.36a.415.415 0 00-.41.41c0 .205.205.444.41.444zm0-1.708h10.245c.239 0 .41-.204.41-.409s-.171-.444-.41-.444H12.36a.415.415 0 00-.41.41c0 .205.205.444.41.444z" fill="#282828"/><path d="M34.556 17.073h-6.385V6.42c0-.718-.58-1.298-1.298-1.298h-6.385V.41a.44.44 0 00-.41-.41h-5.122a.415.415 0 00-.41.41v4.712h-6.42c-.716 0-1.297.58-1.297 1.298v5.531H2.561v-.853h.41c.239 0 .41-.205.41-.41s-.171-.444-.376-.444H1.298a.415.415 0 00-.41.41c0 .204.205.41.41.41h.41v.887H.41a.44.44 0 00-.41.41v1.707c0 .24.205.41.41.41h6.42v17.961H.41a.44.44 0 00-.41.41v1.707c0 .24.205.41.41.41h34.146c.24 0 .41-.205.41-.41V32.85a.415.415 0 00-.41-.41h-6.385v-9.39h6.42a.415.415 0 00.409-.41v-1.707a.415.415 0 00-.41-.41h-6.42v-.854h6.42c.24 0 .41-.205.41-.41v-1.707c0-.273-.205-.478-.444-.478zM15.366.853h4.268v4.269h-.854V2.117a.44.44 0 00-.41-.41.415.415 0 00-.409.41v3.005h-.888V2.117a.44.44 0 00-.41-.41.415.415 0 00-.41.41v3.005h-.887V.854zM7.683 6.42c0-.24.205-.41.41-.41h18.78c.24 0 .41.205.41.41v26.019h-.854v-25.2a.415.415 0 00-.41-.41.415.415 0 00-.41.41v4.712H9.39V7.24a.415.415 0 00-.41-.41.415.415 0 00-.41.41v25.2h-.853V6.419h-.034zm17.927 6.385v19.634H9.39V12.805h16.22zm-20.488.854H.854v-.854h4.268v.854zm.854 0v-.854h.853v.854h-.853zm28.17 19.634v.853H.854v-.853h33.292zm-4.268-11.951h4.268v.853h-4.268v-.854zm-.854 0v.853h-.853v-.854h.853zm0-2.561h-.853v-.854h.853v.854zm5.122 0h-4.268v-.854h4.268v.854z" fill="#282828"/></svg>